<svg version="1.1" xmlns="http://www.w3.org/2000/svg" style="display: block;" viewBox="0 0 2048 2048" width="1024" height="1024">
<path transform="translate(0,0)" fill="rgb(255,255,255)" d="M 0 0 L 2048 0 L 2048 2048 L 0 2048 L 0 0 z"/>
<path transform="translate(0,0)" fill="rgb(22,45,67)" d="M 996.882 329.404 C 1012.84 327.338 1031.37 329.255 1046.91 333.275 C 1055.42 335.477 1063.86 338.722 1072.55 340.098 C 1093.28 343.381 1108.55 342.412 1129.81 349.076 C 1175.22 363.31 1213.49 397.775 1235.21 439.775 C 1264.22 495.891 1271.17 561.5 1258.57 623.184 C 1255.18 639.799 1249.79 655.914 1244.6 672.031 C 1309.42 653.995 1377.81 639.962 1445.44 646.711 C 1478.17 649.978 1480.77 654.166 1501.04 678.923 C 1513.99 676.325 1527.06 671.799 1539.8 668.206 C 1547.44 678.122 1556.18 687.482 1564.28 697.049 L 1613.16 754.598 L 1762.34 929.252 C 1741.17 936.725 1718.45 941.884 1696.83 948.07 L 1573.61 984.004 L 1073.86 1131.44 C 1098.29 1106.5 1129.68 1091.75 1159.95 1075.49 C 1189.82 1059.44 1219.47 1043.52 1250.43 1029.61 C 1328.97 994.334 1418.95 966.171 1503.25 949.366 C 1533.26 943.382 1563.78 937.876 1594.32 935.349 C 1610.14 934.04 1626.97 935.75 1642.5 933.191 C 1655.03 931.125 1667.32 926.823 1679.48 923.172 L 1730.96 907.746 C 1727.34 904.359 1724.17 901.242 1719.33 899.713 C 1699.77 893.524 1661.32 897.424 1639.97 898.597 C 1499.51 906.316 1362.32 935.107 1235.67 997.492 C 1178.56 1027.24 1094.01 1080.27 1061.96 1137.25 C 1027.19 1109.64 989.897 1091.42 947.116 1079.83 C 850.76 1053.73 767.459 1072.24 677.886 1110.81 C 649.515 1123.02 621.388 1136.2 594.601 1151.63 C 570.633 1165.44 519.849 1195.54 507.867 1220.39 C 504.664 1227.03 504.784 1235.2 502.335 1242.09 C 501.385 1244.75 499.242 1245.63 496.898 1246.89 C 494.073 1247.23 491.643 1245.78 489.215 1244.49 C 462.817 1230.45 436.861 1212.78 411.21 1197.25 L 219.41 1078.98 C 205.234 1070.21 191.471 1060.19 176.79 1052.36 L 175.339 1051.59 C 220.735 1021.99 266.493 993.092 311.564 962.975 C 243.533 904.586 164.764 832.503 144.334 741.119 C 135.513 701.661 139.041 659.426 161.292 624.921 C 186.298 586.145 227.37 565.268 271.445 555.762 C 388.769 530.459 520.009 587.387 623.234 637.638 C 666.942 658.916 710.73 680.977 751.581 707.399 C 757.51 692.138 763.764 677.005 770.338 662.01 C 767.86 650.293 766.388 638.053 765.18 626.137 C 757.708 552.392 790.783 472.287 837.155 415.962 C 877.788 366.608 933.157 335.442 996.882 329.404 z"/>
<path transform="translate(0,0)" fill="rgb(255,255,255)" d="M 1065.57 356.408 C 1085.69 353.998 1108.27 357.137 1127.51 363.237 C 1173.8 377.911 1205.33 411.832 1227.01 454.282 C 1254.17 507.477 1258.89 571.371 1244.53 629.067 C 1240.38 645.73 1233.88 661.029 1228.64 677.249 L 1207.46 685.141 C 1207.04 682.252 1206.61 679.357 1206 676.503 C 1202.21 658.878 1194.06 641.477 1178.32 631.597 C 1166.6 624.375 1152.48 622.137 1139.1 625.382 C 1118.98 630.281 1101.32 647.088 1091 664.485 C 1076.25 689.344 1072.68 717.851 1079.94 745.734 C 1068.08 753.226 1056.4 760.994 1044.9 769.033 C 1035.08 775.871 1025.49 783.049 1016.17 790.555 C 1007.9 797.331 999.443 805.825 990.052 810.978 C 986.437 812.962 982.278 813.749 978.215 814.161 C 952.077 816.808 924.61 811.651 904.063 794.61 C 861.257 759.107 844.339 694.518 839.381 641.232 C 832.668 569.085 862.631 501.06 908.357 446.742 C 947.252 400.539 1004.16 361.735 1065.57 356.408 z"/>
<path transform="translate(0,0)" fill="rgb(22,45,67)" d="M 932.987 505.335 C 942.971 504.633 952.813 507.194 961.39 512.365 C 974.796 520.447 983.156 534.803 986.651 549.768 C 991.438 570.267 986.005 590.997 975.095 608.604 C 960.62 631.964 940.198 646.678 913.521 652.86 C 899.916 654.171 886.454 653.09 875.18 644.442 C 865.479 636.999 860.277 625.836 858.585 613.93 C 854.797 587.279 863.027 558.441 879.361 537.208 C 892.889 519.622 910.953 508.306 932.987 505.335 z"/>
<path transform="translate(0,0)" fill="rgb(255,255,255)" d="M 931.911 516.44 C 931.512 519.518 915.981 534.763 912.848 538.948 C 895.886 561.605 881.604 585.757 867.715 610.358 C 867.344 609.315 867.265 609.22 867.074 607.948 C 863.863 586.55 874.28 559.004 887.283 542.389 C 898.658 527.853 913.523 518.79 931.911 516.44 z"/>
<path transform="translate(0,0)" fill="rgb(22,45,67)" d="M 1172.21 447.317 C 1184.35 446.653 1196.07 449.187 1205.95 456.605 C 1219.4 466.703 1226.93 483.746 1229.17 500.072 C 1232.6 523.888 1226.25 548.081 1211.57 567.143 C 1199.36 582.913 1184.19 593.132 1164.25 595.673 C 1151.49 597.32 1138.05 595.267 1127.42 587.663 C 1115.93 579.44 1109.69 566.256 1107.31 552.648 C 1102.91 526.322 1108.99 499.319 1124.25 477.418 C 1136.21 460.433 1151.87 450.799 1172.21 447.317 z"/>
<path transform="translate(0,0)" fill="rgb(255,255,255)" d="M 1172.42 457.27 C 1176.93 457.012 1181.56 457.355 1186.07 457.472 C 1159.9 478.732 1139.15 505.703 1120.11 533.288 L 1114.18 542.388 C 1115.22 521.075 1119.93 500.135 1132.4 482.4 C 1142.4 468.19 1155.32 460.157 1172.42 457.27 z"/>
<path transform="translate(0,0)" fill="rgb(255,255,255)" d="M 1218.47 498.614 C 1218.83 499.657 1219.11 500.633 1219.33 501.718 C 1222.87 519.27 1217.72 540.498 1208.05 555.329 C 1197.19 571.978 1181.59 582.08 1162.24 586.006 L 1161.85 585.717 C 1161.74 585.316 1161.42 584.921 1161.51 584.515 C 1161.6 584.108 1165.3 581.198 1165.76 580.787 C 1172.26 575.016 1178.27 568.907 1183.66 562.082 C 1198.7 543.027 1208.54 520.581 1218.47 498.614 z"/>
<path transform="translate(0,0)" fill="rgb(22,45,67)" d="M 1058.49 375.387 C 1068.23 375.677 1077.05 377.136 1085.72 381.985 C 1097.04 388.305 1104.26 398.902 1107.7 411.221 C 1113.81 433.075 1109.4 456.274 1098.32 475.738 C 1085.45 498.35 1065.62 517.096 1040.1 523.956 C 1038.95 524.181 1037.8 524.369 1036.64 524.52 C 1025.5 525.915 1013.97 524.011 1005.18 516.636 C 993.392 506.753 988.749 489.745 987.411 474.971 C 985.175 450.302 991.747 419.92 1007.94 400.617 C 1021.07 384.973 1038.46 377.279 1058.49 375.387 z"/>
<path transform="translate(0,0)" fill="rgb(255,255,255)" d="M 1051.31 386.15 C 1057.35 385.522 1063.38 385.656 1069.44 385.694 C 1046.96 405.647 1026.06 429.438 1006.8 452.528 L 996.927 465.26 C 998.121 447.171 1000.6 429.94 1010.32 414.251 C 1019.96 398.699 1033.84 390.321 1051.31 386.15 z"/>
<path transform="translate(0,0)" fill="rgb(22,45,67)" d="M 980.872 661.267 C 991.818 660.326 1001.67 661.994 1010.69 668.708 C 1021.88 677.041 1028.16 691.009 1030.26 704.535 C 1033.92 728.185 1025.72 754.596 1011.78 773.703 C 999.171 790.993 982.882 803.855 961.382 807.247 C 950.473 807.763 940.207 806.942 930.852 800.705 C 919.486 793.126 913.065 780.28 910.531 767.169 C 905.898 743.195 913.778 717.608 927.52 697.879 C 940.234 679.627 958.749 665.3 980.872 661.267 z"/>
<path transform="translate(0,0)" fill="rgb(255,255,255)" d="M 1020.46 711.661 C 1021.94 715.899 1021.26 722.516 1020.8 727.017 C 1018.54 749.315 1005.58 770.536 988.211 784.363 C 976.516 793.674 963.355 798.748 948.256 796.933 L 947.682 795.872 C 953.427 789.345 962.978 784.113 969.783 778.485 C 991.687 760.37 1008.46 737.291 1020.46 711.661 z"/>
<path transform="translate(0,0)" fill="rgb(22,45,67)" d="M 1089.09 579.074 C 1092.34 578.851 1096.09 578.642 1099.17 579.873 C 1103.49 581.601 1106.84 585.36 1108.5 589.663 C 1111 596.169 1110.24 603.753 1107.43 610.028 C 1104.62 616.283 1100.88 619.868 1094.54 622.302 C 1092.15 622.07 1089.73 621.862 1087.38 621.403 C 1082.15 620.382 1077.93 617.024 1075.34 612.413 C 1072.35 607.067 1072.27 600.279 1074.22 594.57 C 1076.95 586.533 1081.68 582.662 1089.09 579.074 z"/>
<path transform="translate(0,0)" fill="rgb(22,45,67)" d="M 1008.12 582.057 C 1010.39 582.227 1012.79 582.432 1015 583.024 C 1019.07 584.115 1022.94 588.105 1024.81 591.746 C 1027.88 597.735 1027.53 605.237 1025.28 611.432 C 1022.35 619.479 1017.54 624.051 1010 627.718 C 1007.85 627.811 1005.38 627.968 1003.28 627.379 C 999.142 626.212 995.356 622.502 993.504 618.705 C 990.482 612.508 990.807 604.536 993.033 598.149 C 995.931 589.837 1000.25 585.634 1008.12 582.057 z"/>
<path transform="translate(0,0)" fill="rgb(22,45,67)" d="M 1047.11 624.04 C 1048.85 624.111 1050.65 624.167 1052.36 624.516 C 1056.72 625.41 1060.82 628.802 1063.05 632.565 C 1066.13 637.749 1066.23 644.779 1064.77 650.485 C 1062.51 659.314 1057.67 664.964 1050.04 669.666 C 1047.59 669.714 1044.88 669.494 1042.53 668.757 C 1038.26 667.421 1034.69 663.673 1032.79 659.728 C 1029.58 653.038 1030.16 644.629 1032.94 637.905 C 1035.91 630.733 1040.07 627.012 1047.11 624.04 z"/>
<path transform="translate(0,0)" fill="rgb(22,45,67)" d="M 1053.05 530.053 C 1055.7 529.924 1058.67 529.658 1061.25 530.276 C 1065.01 531.175 1068.59 534.003 1070.59 537.268 C 1074.02 542.88 1074 550.305 1072.24 556.462 C 1069.92 564.556 1065.72 569.505 1058.42 573.478 C 1056.01 573.799 1053.36 574.277 1050.96 573.73 C 1047.35 572.907 1044.06 569.996 1042.19 566.884 C 1038.68 561.017 1038.61 552.725 1040.32 546.285 C 1042.44 538.336 1046.17 534.235 1053.05 530.053 z"/>
<path transform="translate(0,0)" fill="rgb(255,255,255)" d="M 438.562 655.423 C 467.39 653.096 497.697 657.823 525.795 664.106 C 599.952 680.69 667.908 710.891 734.521 746.914 C 703.128 824.534 668.815 901.024 627.468 973.939 C 609.018 1006.47 588.001 1037.62 568.5 1069.52 C 564.402 1063.46 559.763 1057.75 555.256 1051.99 C 512.212 997.588 469.848 942.652 428.173 887.194 C 400.864 902.526 375.879 921.799 349.252 938.249 C 318.137 903.834 293.518 856.872 289.36 810.373 C 286.096 773.876 295.556 735.968 319.596 707.747 C 349.813 672.274 393.531 659.003 438.562 655.423 z"/>
<path transform="translate(0,0)" fill="rgb(255,255,255)" d="M 1531.67 682.293 L 1534.23 682.342 C 1543.62 689.789 1568.31 721.668 1578.1 733.089 L 1706.01 883.885 C 1618.29 880.599 1528.7 892.15 1443.29 911.855 C 1397.73 922.312 1352.93 935.853 1309.2 952.383 C 1231.42 982.6 1110.06 1046.4 1064.96 1118.46 C 1051.87 1089.81 1040.65 1060.04 1028.44 1030.99 C 1013.92 996.443 998.362 962.241 983.539 927.8 C 971.623 900.115 958.734 866.693 943.989 840.722 C 941.71 836.707 939.255 833.133 935.719 830.112 L 932.975 830.903 C 932.241 836.306 934.705 843.452 936.494 848.582 C 943.157 867.687 951.671 886.318 959.637 904.914 L 985.778 967.196 L 1027.2 1064.47 C 1034.72 1082.19 1041.66 1100.16 1049.74 1117.64 C 1028.05 1101.48 1005.19 1089.52 980.301 1079.23 C 917.346 1054.13 850.45 1050.63 784.267 1062.91 C 806.518 1011.12 829.32 959.58 852.67 908.284 C 862.759 885.83 871.685 862.608 882.653 840.598 C 901.831 836.16 922.114 827.627 941.586 825.66 C 949.267 824.884 957.176 826.331 964.925 826.034 C 968.582 825.894 974.557 824.193 977.813 825.622 C 977.449 826.5 977.465 826.639 976.712 827.446 C 971.724 832.783 955.482 830.699 948.616 830.627 C 955.528 844.455 964.652 857.318 972.906 870.38 C 983.919 888.056 994.754 905.843 1005.41 923.737 L 1065.05 1024.47 C 1073.22 1038.02 1080.83 1053.67 1090.79 1065.9 C 1094.75 1061.54 1098.78 1057.26 1102.9 1053.05 C 1130.17 1025.65 1162.65 1001.73 1195.3 981.157 C 1329.84 896.37 1491.61 858.629 1649.53 857.86 C 1634.05 839.957 1619.09 821.603 1603.59 803.698 C 1570.4 765.357 1536.46 726.802 1505.72 686.452 C 1514.41 685.472 1523.06 683.765 1531.67 682.293 z"/>
<path transform="translate(0,0)" fill="rgb(255,255,255)" d="M 423.436 903.895 C 426.671 904.718 427.071 905.638 429.273 908.183 C 436.425 916.45 442.819 925.718 449.45 934.42 L 487.066 983.514 L 602.202 1132.67 C 588.004 1141.25 573.888 1149.97 559.855 1158.82 C 531.358 1177.04 500.012 1197.7 492.343 1232.68 C 469.109 1217.47 444.613 1203.97 421.044 1189.22 C 381.552 1166.42 343.039 1141.79 304.365 1117.64 C 268.851 1095.46 232.821 1073.92 197.856 1050.88 C 225.286 1031.52 255.79 1013.95 284.024 995.346 C 330.401 964.783 376.025 932.809 423.436 903.895 z"/>
<path transform="translate(0,0)" fill="rgb(255,255,255)" d="M 1191.43 704.8 C 1191.64 704.855 1191.86 704.873 1192.06 704.966 C 1196.41 707.012 1296.84 868.382 1306.65 885.309 C 1222.49 923.026 1157.1 957.142 1090.64 1022.86 L 1088.72 1023.5 C 1082.36 1017.5 1073.9 999.19 1068.62 990.677 L 976.788 840.067 C 1017.25 800.118 1069.33 764.074 1119.85 738.139 C 1143.34 726.078 1167.46 715.819 1191.43 704.8 z"/>
<path transform="translate(0,0)" fill="rgb(255,255,255)" d="M 1386.9 656.581 C 1404.56 654.995 1425.51 654.445 1442.95 657.306 C 1446.57 657.902 1451.86 658.822 1454.82 661.104 C 1464.55 668.61 1477 687.59 1485 697.761 L 1542.43 770.469 C 1558.47 790.466 1576.92 809.204 1591.84 829.978 C 1523.01 830.101 1461.16 838.649 1394.53 856.632 C 1372.23 862.614 1350.59 869.513 1328.84 877.268 C 1301.9 834.335 1273.85 791.977 1246.53 749.262 C 1235.2 731.538 1222.94 714.227 1212.58 695.908 C 1265.4 675.085 1330.14 660.099 1386.9 656.581 z"/>
<path transform="translate(0,0)" fill="rgb(255,255,255)" d="M 781.855 778.382 C 813.818 797.826 836.79 816.569 871.667 833.774 C 860.937 854.573 852.13 876.72 842.498 898.072 C 817.627 954.083 793.052 1010.22 768.774 1066.5 C 751.542 1070.83 734.81 1076.32 717.996 1082.04 C 695.741 1089.8 674.355 1099.67 652.451 1108.3 C 657.066 1095.67 665.037 1083.55 671.087 1071.48 C 680.793 1051.78 690.085 1031.88 698.956 1011.78 C 717.121 971.515 735.1 929.892 749.658 888.151 C 762.243 852.067 772.328 815.365 781.855 778.382 z"/>
<path transform="translate(0,0)" fill="rgb(255,255,255)" d="M 1001.87 344.411 C 1013.26 343.206 1024.35 344.43 1035.66 345.608 C 965.534 368.118 930.12 393.287 884.347 449.814 C 875.599 449.638 866.32 448.935 857.684 450.437 C 849.455 451.868 842.359 456.883 837.628 463.709 C 833.85 469.159 831.225 476.449 832.854 483.101 C 835.015 491.922 844.819 496.538 851.852 501.022 C 824.35 549.84 816.044 599.19 821.258 654.597 C 817.379 656.142 814.335 657.745 811.041 660.32 C 804.885 667.849 800.312 676.337 795.654 684.825 C 790.534 665.182 785.829 645.476 783.938 625.217 C 777.528 556.527 805.271 479.733 848.997 427.056 C 887.162 381.08 942.098 349.984 1001.87 344.411 z"/>
<path transform="translate(0,0)" fill="rgb(255,255,255)" d="M 298.01 581.331 C 306.251 583.849 329.737 601.051 339.044 606.974 C 354.083 616.659 369.335 626.009 384.787 635.02 C 363.855 640.151 341.287 647.063 323.36 659.433 C 315.977 664.527 309.294 670.768 302.271 676.357 L 300.448 675.974 C 270.071 658.668 240.713 638.638 209.702 622.652 C 233.815 598.841 265.57 588.096 298.01 581.331 z"/>
<path transform="translate(0,0)" fill="rgb(255,255,255)" d="M 198.458 635.761 C 210.889 641.891 222.842 649.922 234.779 657.005 C 253.187 667.834 271.674 678.529 290.238 689.088 C 274.932 710.58 267.83 732.865 263.395 758.626 C 252.712 752.9 242.547 746.017 232.178 739.736 L 170.799 702.639 C 174.659 678.672 182.545 654.53 198.458 635.761 z"/>
<path transform="translate(0,0)" fill="rgb(255,255,255)" d="M 170.216 718.649 C 181.705 724.226 192.895 732.535 203.848 739.225 L 262.276 774.127 C 262.238 797.711 267.359 818.678 273.505 841.198 C 244.079 826.706 216.051 808.896 186.796 793.914 C 176.866 769.554 170.058 745.121 170.216 718.649 z"/>
<path transform="translate(0,0)" fill="rgb(255,255,255)" d="M 321.058 577.437 C 330.5 576.555 340.351 576.731 349.838 576.68 C 370.829 576.569 409.544 577.258 428.055 585.423 C 444.189 592.539 459.732 605.829 474.544 615.576 C 486.875 623.691 502.808 631.768 513.259 642.139 C 476.25 633.925 441.097 630.295 403.16 633.077 C 386.562 620.472 368.595 609.15 351.022 597.939 C 341.223 591.688 329.461 585.449 321.058 577.437 z"/>
<path transform="translate(0,0)" fill="rgb(255,255,255)" d="M 1605.69 943.441 C 1607.48 943.192 1608.29 943.249 1610.01 943.559 C 1606.8 946.315 1534.14 964.331 1522.51 967.653 C 1407.87 1000.41 1293.11 1030.78 1181.26 1072.55 L 1178.28 1073.48 L 1178.78 1072.45 C 1191.45 1064.97 1205.06 1058.92 1218.35 1052.61 C 1324.88 1001.95 1488.91 953.71 1605.69 943.441 z"/>
<path transform="translate(0,0)" fill="rgb(255,255,255)" d="M 192.522 807.636 C 201.42 811.227 210.311 817.293 218.732 821.952 C 238.762 833.032 258.776 844.436 279.272 854.63 C 290.49 876.39 303.649 896.975 319.776 915.424 C 319.185 915.294 318.081 915.072 317.445 914.865 C 305.614 911.012 289.249 901.048 277.667 895.237 C 264.016 888.388 244.749 881.004 233.181 871.683 C 220.614 861.557 200.637 822.588 192.522 807.636 z"/>
<path transform="translate(0,0)" fill="rgb(255,255,255)" d="M 456.211 590.94 C 473.093 591.985 555.255 621.968 570.325 630.872 C 577.704 635.231 584.436 641.523 591.191 646.83 L 632.234 679.155 C 615.036 674.713 597.631 665.973 580.762 660.018 C 569.71 656.117 546.454 650.81 537.679 645.738 C 529.09 640.774 520.861 634.261 512.597 628.715 L 456.211 590.94 z"/>
<path transform="translate(0,0)" fill="rgb(255,255,255)" d="M 629.919 1015.87 C 641.805 1022.59 653.053 1030.51 664.12 1038.49 C 655.275 1055.55 646.03 1072.43 636.987 1089.39 C 625.085 1081.05 613.997 1071.17 602.259 1062.48 C 611.687 1047.07 620.908 1031.53 629.919 1015.87 z"/>
<path transform="translate(0,0)" fill="rgb(255,255,255)" d="M 598.902 641.737 C 606.565 642.323 617.733 649.276 624.862 652.591 C 666.585 671.989 708.373 691.756 746.243 718.127 L 741.755 728.757 C 740.895 730.364 741.139 730.698 739.34 731.345 C 724.209 723.036 709.128 714.525 693.766 706.654 C 683.164 701.222 671.511 696.495 661.521 690.065 C 654.088 685.28 647.268 679.139 640.288 673.7 L 598.902 641.737 z"/>
<path transform="translate(0,0)" fill="rgb(255,255,255)" d="M 661.507 955.426 C 672.859 961.483 683.271 969.712 693.479 977.519 C 686.223 994.458 677.422 1010.92 669.208 1027.43 C 658.099 1019.73 646.839 1012.23 635.642 1004.65 C 644.68 988.466 653.305 972.052 661.507 955.426 z"/>
<path transform="translate(0,0)" fill="rgb(255,255,255)" d="M 691.595 895.552 C 701.724 901.499 712.376 907.122 721.714 914.266 L 697.837 966.57 C 687.854 958.913 677.8 951.7 666.785 945.582 C 676.458 929.955 683.796 912.204 691.595 895.552 z"/>
<path transform="translate(0,0)" fill="rgb(255,255,255)" d="M 720.579 830.425 C 729.492 835.684 738.583 840.635 747.838 845.268 C 741.847 863.118 734.554 884.904 725.641 901.457 C 715.772 896.198 706.16 890.514 696.517 884.856 C 703.717 866.481 712.549 848.47 720.579 830.425 z"/>
<path transform="translate(0,0)" fill="rgb(255,255,255)" d="M 246.46 888.659 C 256.742 891.446 267.727 899.226 277.431 904.178 C 294.439 912.857 312.073 920.663 328.57 930.28 C 334.172 933.546 339.197 937.322 344.233 941.393 C 340.223 944.436 336.011 947.236 331.877 950.106 C 326.536 953.944 320.901 957.358 315.335 960.854 C 291.921 937.264 268.18 913.832 246.46 888.659 z"/>
<path transform="translate(0,0)" fill="rgb(255,255,255)" d="M 786.549 736.862 C 814.221 754.435 837.979 774.786 860.675 798.327 C 866.868 804.75 873.669 811.086 878.409 818.695 C 878.75 822.198 877.564 823.52 875.985 826.606 C 874.764 826.738 873.868 826.247 872.825 825.555 C 862.721 818.854 853.174 809.368 843.686 801.693 C 824.821 786.434 805.244 771.699 784.745 758.695 C 784.936 751.292 785.448 744.187 786.549 736.862 z"/>
<path transform="translate(0,0)" fill="rgb(255,255,255)" d="M 745.715 765.783 L 766.279 778.22 C 762.03 795.379 757.894 815.538 750.407 831.557 L 748.566 831.993 C 741.119 827.282 733.7 822.791 725.902 818.68 C 732.924 801.195 738.603 783.22 745.715 765.783 z"/>
<path transform="translate(0,0)" fill="rgb(255,255,255)" d="M 826.526 687.749 C 830.759 692.791 836.52 721.201 840.048 730.372 C 849.142 754.012 863.563 773.6 880.747 791.902 C 876.772 789.071 872.865 786.134 868.93 783.246 C 844.739 764.584 821.198 736.905 806.733 709.905 C 814.554 703.982 820.477 695.399 826.526 687.749 z"/>
<path transform="translate(0,0)" fill="rgb(255,255,255)" d="M 596.677 1072.58 C 608.304 1081.34 619.777 1090.35 631.232 1099.33 C 626.886 1107.08 622.026 1114.36 617.046 1121.71 L 613.949 1125.17 C 608.804 1124.19 589.311 1096.96 585.255 1091.07 L 596.677 1072.58 z"/>
<path transform="translate(0,0)" fill="rgb(255,255,255)" d="M 1179.46 645.639 C 1191.01 654.335 1195.09 674.768 1197.57 688.137 C 1187.93 692.077 1178.55 696.606 1169.13 701.044 C 1164.92 703.122 1160.45 704.764 1156.1 706.531 C 1166.14 685.294 1177.01 669.716 1179.46 645.639 z"/>
<path transform="translate(0,0)" fill="rgb(255,255,255)" d="M 876.198 802.736 C 892.682 809.267 909.62 814.875 926.342 820.78 C 921.885 822.249 917.359 823.528 912.862 824.868 L 886.794 832.52 L 889.736 822.676 C 884.81 816.466 880.945 809.182 876.198 802.736 z"/>
<path transform="translate(0,0)" fill="rgb(255,255,255)" d="M 788.377 713.542 C 793.526 716.244 813.44 746.59 816.284 752.68 C 806.739 745.667 796.948 739.252 786.937 732.93 L 788.377 713.542 z"/>
<path transform="translate(0,0)" fill="rgb(255,255,255)" d="M 773.903 683.487 C 775.148 684.958 775.604 685.851 776.339 687.613 C 780.098 696.629 778.639 713.279 774.906 722.432 L 773.288 722.034 L 764.701 716.668 C 767.572 705.554 770.64 694.492 773.903 683.487 z"/>
<path transform="translate(0,0)" fill="rgb(255,255,255)" d="M 762.498 723.465 L 773.683 730.776 C 773.037 735.596 772.711 744.742 769.947 748.687 C 764.881 745.717 759.985 742.358 755.053 739.164 C 757.31 733.826 759.936 728.661 762.498 723.465 z"/>
<path transform="translate(0,0)" fill="rgb(22,45,67)" d="M 277.176 1237.75 C 277.778 1239.65 278.395 1241.54 279.028 1243.43 C 312.529 1343.51 363.711 1428.69 445.825 1496.08 C 526.718 1562.46 627.959 1596.68 731.849 1601.63 C 812.536 1605.47 894.547 1591.72 973.769 1577.48 C 1085.49 1557.4 1195.58 1532.43 1307.83 1514.59 C 1368.52 1504.94 1429.55 1496.27 1491.1 1495.2 C 1582.02 1493.62 1689.25 1508.94 1771.08 1550.59 C 1781 1555.63 1790.52 1561.82 1800.04 1567.59 C 1848.73 1597.14 1899.54 1636.12 1917.73 1692.52 C 1906.74 1677.29 1896.31 1661.83 1884.12 1647.49 C 1861.93 1621.41 1829.25 1593.95 1798.01 1579.15 L 1797.08 1579.86 C 1797.08 1583.2 1798.33 1584.68 1800.81 1586.84 C 1809.04 1594.04 1820.18 1599.79 1829.2 1606.26 C 1846.98 1619.02 1862.59 1633.07 1878 1648.56 C 1883.84 1654.62 1905.5 1675.62 1906.44 1682.85 C 1903.69 1679.54 1900.9 1676.27 1898.06 1673.04 C 1852.79 1621.6 1797.74 1593.28 1732.4 1575.32 C 1590.84 1536.41 1448.88 1560.83 1309.48 1596.31 C 1217.71 1619.67 1127.28 1648.05 1035.52 1671.29 C 921.844 1700.09 802.793 1726.06 684.827 1718.3 C 551.522 1709.52 419.698 1654.39 330.876 1552.62 C 276.771 1490.64 246.907 1411.98 236.909 1330.98 C 234.595 1312.23 232.35 1291.98 233.63 1273.13 C 236.267 1295.1 240.19 1316.9 245.378 1338.42 C 251.466 1327.81 255.868 1315.71 260.654 1304.44 C 266.917 1289.57 273.45 1274.81 280.248 1260.17 C 278.549 1252.79 276.932 1245.36 277.176 1237.75 z"/>
<path transform="translate(0,0)" fill="rgb(255,255,255)" d="M 440.299 1522.39 C 450.414 1528.25 459.968 1536.88 469.651 1543.64 C 484.934 1554.3 500.92 1563.77 516.905 1573.32 C 518.477 1594.67 519.444 1626.62 517.376 1647.82 L 516.01 1648.94 L 512.852 1648.04 C 484.299 1636.38 458.352 1621.39 431.994 1605.54 C 433.312 1577.96 436.037 1549.66 440.299 1522.39 z"/>
<path transform="translate(0,0)" fill="rgb(255,255,255)" d="M 366.864 1448.44 C 375.395 1455.28 383.414 1467.32 390.844 1475.59 C 402.569 1488.65 415.138 1500.48 428.347 1512.01 C 423.382 1539.36 421.039 1566.99 416.915 1594.44 L 416.325 1594.7 L 413.518 1592.72 C 389.648 1575.47 368.22 1557.62 348.372 1535.74 C 350.95 1510.65 360.311 1473.46 366.864 1448.44 z"/>
<path transform="translate(0,0)" fill="rgb(255,255,255)" d="M 629.704 1615.42 C 659.978 1621.11 689.867 1624.79 720.504 1627.69 C 725.416 1650.27 730.146 1673.15 734.519 1695.83 C 701.568 1694.39 669.169 1691.6 636.908 1684.53 C 635.159 1670.92 633.921 1657.21 632.409 1643.57 C 631.384 1634.33 629.692 1624.72 629.704 1615.42 z"/>
<path transform="translate(0,0)" fill="rgb(255,255,255)" d="M 819.985 1625.41 C 822.99 1624.94 826.338 1624.97 829.39 1624.77 C 836.587 1645.19 843.107 1665.91 850.067 1686.42 C 821.159 1691.05 792.003 1693.96 762.75 1695.14 L 750.297 1695.73 C 745.656 1673.07 740.123 1650.84 734.185 1628.49 C 762.711 1628.47 791.584 1628.32 819.985 1625.41 z"/>
<path transform="translate(0,0)" fill="rgb(255,255,255)" d="M 531.77 1579.4 C 559.303 1591.6 586.734 1601.57 615.052 1611.77 C 616.616 1635.09 618.854 1658.36 621.765 1681.55 C 591.615 1676.34 561.669 1666.44 533.019 1655.88 C 533.117 1630.38 531.536 1604.9 531.77 1579.4 z"/>
<path transform="translate(0,0)" fill="rgb(255,255,255)" d="M 312.992 1360.5 C 326.84 1387.3 341.386 1412.25 358.186 1437.32 C 350.449 1460.52 345.013 1484.54 339.854 1508.41 C 339.182 1511.52 338.426 1518.59 336.812 1521.04 C 336.556 1521.43 336.059 1521.59 335.683 1521.86 L 334.176 1520.27 C 314.563 1497.38 298.756 1471.11 284.664 1444.56 C 293.674 1418.16 300.248 1384.65 312.992 1360.5 z"/>
<path transform="translate(0,0)" fill="rgb(255,255,255)" d="M 937.513 1609.38 L 938.973 1609.31 C 943.123 1613.47 961.663 1656.51 965.496 1664.43 C 951.384 1666.95 937.358 1670.74 923.31 1673.67 C 907.025 1677.08 890.547 1679.62 874.128 1682.29 C 871.18 1682.85 868.408 1683.2 865.41 1683.33 C 862.911 1681.1 846.615 1630.45 844.071 1623.33 C 854.759 1620.86 866.339 1620.09 877.22 1618.53 C 897.341 1615.64 917.44 1612.59 937.513 1609.38 z"/>
<path transform="translate(0,0)" fill="rgb(255,255,255)" d="M 1043.68 1590.26 C 1045.09 1590.04 1044.51 1589.98 1045.93 1590.39 C 1049.56 1591.44 1069.76 1631.24 1073.54 1638.4 C 1044.21 1646.99 1013.91 1653.12 984.242 1660.44 L 981.177 1660.87 C 976.594 1656.83 958.372 1615.27 954.299 1606.45 C 983.916 1600.28 1014.02 1596.39 1043.68 1590.26 z"/>
<path transform="translate(0,0)" fill="rgb(255,255,255)" d="M 280.371 1268.63 C 281.132 1269.5 281.484 1269.8 282.031 1270.97 C 286.025 1279.51 287.992 1290.94 290.701 1300.07 C 295.557 1316.94 301.252 1333.56 307.764 1349.86 C 296.687 1374.85 290.269 1402.49 279.606 1426.34 C 278.721 1428.32 279.203 1428.17 277.03 1429 C 263.668 1403.93 253.552 1372.41 248.077 1344.62 C 253.021 1335.99 256.339 1326.11 259.961 1316.85 C 266.298 1300.64 272.481 1284.17 280.371 1268.63 z"/>
<path transform="translate(0,0)" fill="rgb(255,255,255)" d="M 1143.64 1569.22 L 1145.91 1569.04 C 1152.3 1572.33 1172.03 1602.23 1178.16 1610.15 C 1151.31 1617.22 1124.51 1624.53 1097.79 1632.09 C 1094.68 1632.99 1091.79 1634.2 1088.54 1633.36 C 1078.9 1620.73 1069.56 1600.88 1061.33 1586.58 C 1088.83 1581.1 1116.19 1574.96 1143.64 1569.22 z"/>
<path transform="translate(0,0)" fill="rgb(255,255,255)" d="M 1243.86 1549.33 L 1247.46 1548.81 C 1256.01 1552.04 1274.43 1576.29 1281.4 1584.2 C 1253.43 1591.06 1225.52 1598.2 1197.7 1605.62 C 1195.98 1606.05 1194.39 1606.22 1192.62 1606.33 C 1181.42 1593.4 1171.26 1579.19 1160.74 1565.67 C 1188.58 1561.23 1216.13 1554.49 1243.86 1549.33 z"/>
<path transform="translate(0,0)" fill="rgb(255,255,255)" d="M 1349.72 1530.37 L 1353.42 1530.04 C 1362.2 1534.36 1377.9 1552.39 1385.44 1559.8 C 1356.27 1565.95 1327.02 1572.11 1298.23 1579.86 L 1296.56 1580.4 C 1291.48 1579.24 1268.71 1552.1 1263.25 1546.15 C 1291.96 1540.62 1320.77 1534.57 1349.72 1530.37 z"/>
<path transform="translate(0,0)" fill="rgb(255,255,255)" d="M 1459.04 1515.51 C 1465.03 1517.27 1482.06 1537.7 1487.23 1543.27 C 1457.37 1547.17 1427.46 1550.95 1398 1557.31 C 1387.75 1546.98 1377.28 1536.84 1366.91 1526.63 C 1397.69 1522.65 1428.05 1517.63 1459.04 1515.51 z"/>
<path transform="translate(0,0)" fill="rgb(255,255,255)" d="M 1499.12 1513.45 C 1548.76 1512.07 1547.4 1509.57 1586.65 1539.07 L 1559.31 1538.94 C 1539.87 1539.03 1520.45 1540.1 1501.12 1542.14 C 1492.54 1532.81 1483.48 1523.84 1474.75 1514.63 C 1482.85 1514.04 1491.01 1513.82 1499.12 1513.45 z"/>
<path transform="translate(0,0)" fill="rgb(255,255,255)" d="M 1571.31 1515.96 C 1595.2 1515.24 1641.83 1523.51 1664.97 1529.42 C 1672.66 1536.56 1680.13 1543.7 1687.19 1551.48 C 1676.89 1550.03 1666.68 1547.58 1656.4 1545.91 C 1638.26 1542.96 1619.99 1540.85 1601.65 1539.58 C 1592.06 1531.12 1581.52 1523.65 1571.31 1515.96 z"/>
<path transform="translate(0,0)" fill="rgb(255,255,255)" d="M 1683.43 1532.82 C 1708.4 1537.44 1738.57 1548.44 1761.42 1559.47 C 1771.69 1564.44 1781.34 1570.08 1785.27 1581.34 C 1758.28 1571.2 1732.71 1561.63 1704.53 1555.23 C 1697.91 1547.38 1690.6 1540.15 1683.43 1532.82 z"/>
<path transform="translate(0,0)" fill="rgb(22,45,67)" d="M 1765.48 936.111 L 1768.04 936.53 C 1771.36 945.27 1772.37 987.997 1773.2 1000.48 C 1734.05 1013.69 1693.61 1024.5 1654.01 1036.35 C 1567.63 1062.25 1481.13 1087.71 1394.5 1112.73 C 1416.58 1119.89 1438.64 1127.04 1460.12 1135.89 C 1588.13 1188.63 1708.17 1274.75 1809.77 1368.02 C 1832.83 1389.19 1865.51 1417.99 1884.07 1442.47 L 1883.48 1442.52 C 1865.79 1425.33 1847.49 1408.76 1828.64 1392.85 C 1833.38 1409.52 1837.78 1426.29 1841.84 1443.14 C 1851.45 1452.39 1861.81 1461 1871.57 1470.14 L 1871.66 1471.3 L 1873.01 1472.35 L 1872.86 1471.65 L 1871.92 1471.67 L 1872.28 1471.06 L 1871.37 1471.29 C 1856.41 1460.64 1842.52 1447.85 1827.89 1436.63 C 1798.95 1414.49 1769.47 1393.07 1739.47 1372.38 C 1737.86 1371.3 1736.24 1370.22 1734.61 1369.16 C 1612.98 1289.65 1504.24 1252.3 1359.67 1239.57 C 1314.08 1235.23 1268.28 1233.62 1222.51 1234.77 C 1178.93 1235.76 1127.52 1236.52 1085.01 1245.35 C 1076.46 1211.12 1068.06 1177 1058.74 1142.95 C 1076.33 1137.36 1094.65 1133.52 1112.39 1128.21 L 1364.71 1053.75 L 1652.58 968.606 C 1690.17 957.817 1727.56 945.625 1765.48 936.111 z"/>
<path transform="translate(0,0)" fill="rgb(255,255,255)" d="M 1343.95 1129.1 C 1348.19 1129.39 1352.95 1131.24 1357.09 1132.35 C 1367.78 1160.36 1381.87 1186.87 1391.46 1215.41 C 1364.13 1212 1336.71 1209.24 1309.25 1207.15 L 1273.48 1204.87 C 1266.42 1189.29 1258.3 1174.18 1250.19 1159.13 C 1265.29 1153.1 1281.46 1149.06 1297.03 1144.35 C 1312.77 1139.59 1328.3 1134.16 1343.95 1129.1 z"/>
<path transform="translate(0,0)" fill="rgb(255,255,255)" d="M 1383.54 1137.72 C 1419.71 1146.3 1457.14 1158.1 1491.17 1173.06 C 1505.61 1194.24 1514.26 1221.85 1523.83 1245.65 C 1487.89 1234.52 1452.14 1225.04 1414.86 1219.7 C 1407.68 1191.29 1394.06 1164.92 1383.54 1137.72 z"/>
<path transform="translate(0,0)" fill="rgb(255,255,255)" d="M 1517.11 1184.38 C 1528.47 1188.31 1539.58 1194.58 1550.37 1199.94 C 1573.07 1211.22 1595.86 1222.38 1617.01 1236.45 C 1624.2 1256.64 1632.86 1276.39 1640.22 1296.56 C 1629.81 1292.94 1618.95 1286.06 1608.97 1281.09 C 1587.39 1270.34 1565.46 1260.31 1542.4 1253.16 C 1536.54 1229.46 1526.62 1206.79 1517.11 1184.38 z"/>
<path transform="translate(0,0)" fill="rgb(255,255,255)" d="M 1635.89 1248.65 C 1636.64 1248.99 1637.39 1249.32 1638.11 1249.71 C 1651.76 1256.96 1720.68 1303.75 1727.4 1313.74 C 1734.8 1324.77 1741.31 1352.28 1745.52 1365.5 C 1737.38 1361.99 1717.86 1345.55 1708.74 1339.18 C 1691.27 1326.99 1673.14 1315.67 1655.05 1304.43 C 1649.44 1285.6 1642.29 1267.22 1635.89 1248.65 z"/>
<path transform="translate(0,0)" fill="rgb(255,255,255)" d="M 1225.8 1166.17 L 1227.65 1165.78 C 1232.74 1168.85 1243.92 1197.33 1246.37 1204.3 C 1200.56 1203.32 1154.73 1204.7 1109.07 1208.42 C 1102.48 1208.85 1094.91 1210.69 1088.45 1209.54 C 1093.66 1206.38 1101.78 1204.89 1107.66 1202.79 C 1146.41 1188.95 1186.35 1177.87 1225.8 1166.17 z"/>
<path transform="translate(0,0)" fill="rgb(255,255,255)" d="M 1741.45 1322.78 C 1756.31 1332.54 1769.65 1344.43 1783.35 1355.71 C 1796.27 1366.34 1809.57 1376.51 1822.13 1387.57 C 1824.71 1403.41 1829.83 1418.65 1832.53 1434.47 C 1821.76 1429.2 1801.51 1409.12 1791.51 1400.63 C 1780.21 1391.05 1768.47 1382.1 1756.95 1372.79 C 1750.88 1356.66 1746.71 1339.25 1741.45 1322.78 z"/>
<path transform="translate(0,0)" fill="rgb(22,45,67)" d="M 174.388 1077.24 C 190.761 1081.15 253.679 1121.64 272.941 1132.99 C 344.453 1175.8 416.395 1217.89 488.757 1259.24 L 730.692 1201.17 L 846.809 1173.53 C 884.167 1164.77 921.564 1155.76 959.656 1150.77 C 989.321 1146.88 1018.8 1146.21 1048.64 1145.01 C 1048.74 1150.85 1049.59 1156.49 1050.45 1162.25 L 1037.24 1165.25 L 478.167 1291.09 C 470.05 1287.3 462.348 1282.33 454.517 1277.96 L 410.601 1253.66 C 373.79 1233.3 336.799 1213.13 300.321 1192.19 C 261.377 1169.84 222.357 1146.24 182.349 1125.88 C 179.968 1109.65 176.092 1093.53 174.388 1077.24 z"/>
<path transform="translate(0,0)" fill="rgb(22,45,67)" d="M 1047.17 1185.32 C 1049.19 1184.94 1051.06 1184.92 1053.1 1184.93 C 1058.01 1189.88 1066.06 1230.52 1068.46 1239.94 C 1024.33 1239.55 979.739 1244.17 935.847 1248.31 C 823.068 1259.89 710.776 1275.79 599.216 1295.98 C 591.838 1297.42 584.432 1298.71 577.002 1299.85 C 661.939 1272.63 749.697 1253.27 836.426 1232.65 L 955.917 1205.12 C 986.21 1198.16 1016.53 1190.55 1047.17 1185.32 z"/>
<path transform="translate(0,0)" fill="rgb(22,45,67)" d="M 905.03 1131.43 C 940.327 1128.42 977.302 1133.29 1012.14 1138.6 C 942.728 1139.76 874.637 1157.54 807.504 1173.68 L 614.854 1220.43 C 585.962 1226.45 557.646 1234.79 528.635 1240.56 C 543.48 1233.12 559.096 1226.86 574.244 1220.03 C 679.75 1172.43 788.864 1137.78 905.03 1131.43 z"/>
<path transform="translate(0,0)" fill="rgb(22,45,67)" d="M 1480.57 1363.7 C 1497.63 1363.74 1516.39 1361.65 1530.26 1373.7 C 1539.7 1381.91 1544.75 1394.13 1545.2 1406.51 C 1545.68 1419.81 1541.75 1430.97 1532.83 1440.76 C 1515.41 1453.59 1500.99 1451.78 1480.56 1451.79 C 1480.39 1422.43 1480.4 1393.06 1480.57 1363.7 z"/>
<path transform="translate(0,0)" fill="rgb(255,255,255)" d="M 1491.12 1374.54 C 1502.24 1374.47 1513.05 1374.68 1522.35 1381.7 C 1529.19 1386.87 1533.36 1394.7 1534.38 1403.16 C 1535.55 1413.54 1532.59 1423.97 1526.14 1432.19 C 1515.1 1441.28 1504.61 1440.75 1491.05 1440.5 L 1491.12 1374.54 z"/>
<path transform="translate(0,0)" fill="rgb(22,45,67)" d="M 870.082 1098.46 C 910.009 1098.53 946.994 1104.73 985.251 1115.97 C 992.936 1118.23 1000.26 1121.26 1007.91 1123.55 C 1006.36 1124.38 992.155 1120.98 989.635 1120.48 C 956.49 1113.92 927.426 1108.74 893.457 1107.89 C 807.463 1105.74 726.024 1129.59 648.737 1165.55 C 624.652 1176.75 600.815 1188.59 576.956 1200.27 C 566.316 1205.48 555.823 1211.18 544.937 1215.85 L 545.302 1215.04 C 565.214 1200.57 587.89 1188.86 609.369 1176.84 C 696.349 1128.15 769.753 1101.01 870.082 1098.46 z"/>
<path transform="translate(0,0)" fill="rgb(22,45,67)" d="M 858.428 1361.73 L 859.154 1362.45 C 861.752 1370.14 873.564 1445.43 873.196 1451.72 L 871.381 1453.29 C 869.172 1453.76 867.408 1453.62 865.408 1452.41 C 863.633 1451.33 862.275 1449.21 861.665 1447.26 C 857.669 1434.47 855.991 1409.78 854.129 1395.67 C 844.438 1415.52 836.397 1435.88 825.885 1455.38 C 815.595 1435.58 806.034 1415.05 796.521 1394.84 L 794.694 1409.9 C 792.485 1424.08 790.026 1438.29 788.534 1452.57 C 784.63 1452.76 780.653 1452.62 776.741 1452.64 C 783.627 1422.72 785.622 1391.69 792.527 1361.84 C 803.136 1385.42 814.001 1408.67 826.204 1431.47 C 838.577 1409.57 848.315 1384.78 858.428 1361.73 z"/>
<path transform="translate(0,0)" fill="rgb(22,45,67)" d="M 1017.78 1349.89 L 1030.88 1349.88 C 1031.03 1365.46 1027.09 1426.87 1035.94 1436.35 C 1040.8 1441.55 1048.56 1442.48 1055.31 1442.34 C 1060.19 1442.23 1064.83 1440.38 1068.2 1436.8 C 1071.59 1433.2 1073.31 1428.41 1074.19 1423.61 C 1075.82 1414.73 1074.96 1404.71 1074.91 1395.67 L 1074.64 1350.25 L 1087.03 1350.13 L 1087.02 1362.17 C 1087.13 1380.47 1089.45 1410.86 1086.07 1427.9 C 1084.86 1434 1082.28 1439.91 1078.19 1444.64 C 1072.43 1451.31 1064.66 1454.46 1055.95 1454.8 C 1045.79 1455.19 1034.05 1452.29 1026.52 1445.11 C 1022.98 1441.79 1020.48 1437.5 1019.33 1432.78 C 1015.46 1417.45 1017.84 1368.75 1017.78 1349.89 z"/>
<path transform="translate(0,0)" fill="rgb(22,45,67)" d="M 626.976 1362.31 C 635.888 1367.13 678.037 1417.95 687.553 1429.35 C 687.529 1420.33 685.851 1373.01 687.325 1368.57 C 688.3 1365.63 689.142 1365.21 691.594 1363.56 C 694.452 1363.4 695.129 1363.36 697.68 1364.59 C 701.187 1373.55 698.399 1436.67 698.563 1451.9 L 698.353 1454.34 C 695.083 1453.92 644.563 1397.01 637.901 1389.79 C 637.581 1410.34 637.826 1430.9 637.464 1451.46 L 636.089 1452.69 C 633.132 1452.8 630.615 1453.02 627.803 1451.89 C 625.094 1441.42 626.958 1378.2 626.976 1362.31 z"/>
<path transform="translate(0,0)" fill="rgb(22,45,67)" d="M 539.532 1346.22 C 552.954 1344.94 564.036 1347.23 576.238 1352.7 C 576.135 1358.67 576.126 1364.5 576.601 1370.45 C 573.211 1367.2 569.82 1363.97 565.7 1361.64 C 556.608 1356.45 545.776 1355.25 535.772 1358.33 C 524.614 1361.74 515.064 1370.12 509.681 1380.4 C 504.271 1390.73 502.832 1403.71 506.38 1414.88 C 509.641 1425.14 517.579 1434.35 527.209 1439.19 C 537.155 1444.19 547.871 1444.01 558.244 1440.6 C 564.076 1437.16 569.41 1433.66 574.657 1429.37 C 574.683 1435.14 574.515 1440.92 574.439 1446.69 C 568.426 1449.63 562.429 1452.22 555.842 1453.59 C 541.848 1456.49 526.449 1454.01 514.559 1445.89 C 503.292 1438.2 495.848 1425.84 493.219 1412.56 C 490.176 1397.27 493.459 1381.41 502.317 1368.58 C 511.5 1355.53 524.203 1348.97 539.532 1346.22 z"/>
<path transform="translate(0,0)" fill="rgb(22,45,67)" d="M 1108.8 1362.36 C 1113.45 1364.94 1161.15 1419.62 1168.82 1427.92 C 1169.06 1415.54 1169.17 1403.07 1169.01 1390.68 C 1168.92 1384.19 1167.87 1376.56 1168.77 1370.17 C 1169.05 1368.21 1170.05 1365.73 1171.67 1364.5 C 1173.8 1362.88 1175.1 1363.15 1177.55 1363.43 C 1178.05 1364.05 1178.77 1364.56 1179.06 1365.31 C 1181.61 1371.95 1179.44 1438.72 1179.41 1452.08 L 1178.94 1453.37 C 1176.07 1452.74 1127.67 1397.45 1119.87 1389.67 C 1119.66 1398.04 1120.78 1447.87 1118.4 1451.25 C 1115.56 1451.45 1113.47 1451.83 1110.95 1450.2 C 1109.5 1448.06 1108.82 1446.4 1108.66 1443.85 C 1108.28 1437.68 1109.22 1431.26 1109.16 1425.03 L 1108.8 1362.36 z"/>
<path transform="translate(0,0)" fill="rgb(22,45,67)" d="M 921.082 1361.56 C 921.783 1362.31 922.069 1362.56 922.639 1363.57 C 925.772 1369.12 958.123 1448 958.1 1449.87 C 958.093 1450.49 957.77 1451.06 957.605 1451.65 C 955.357 1452.18 952.825 1452.41 950.622 1451.5 C 943.49 1448.56 940.508 1435.02 937.9 1428.36 C 932.535 1429.16 926.684 1428.76 921.25 1428.81 L 903.839 1428.84 C 900.243 1436.69 897.247 1444.85 894.081 1452.88 L 880.873 1452.18 C 888.368 1441.43 893.501 1427.14 898.61 1415.06 L 921.082 1361.56 z"/>
<path transform="translate(0,0)" fill="rgb(255,255,255)" d="M 921.211 1386.65 C 926.214 1396.36 929.692 1407.84 933.731 1418.07 L 921.442 1418.47 L 907.972 1418.38 C 912.213 1407.73 916.627 1397.16 921.211 1386.65 z"/>
<path transform="translate(0,0)" fill="rgb(22,45,67)" d="M 720.298 1363.48 C 736.098 1363.27 751.9 1363.16 767.702 1363.15 L 766.898 1373.53 L 731.216 1373.45 L 731.22 1398.09 C 742.515 1397.96 754.784 1396.88 765.946 1398.42 C 767.23 1401.11 766.712 1404.06 766.64 1407 C 761.796 1412.21 740.428 1406.16 732.245 1409.16 L 731.606 1411.75 L 731.65 1440.99 C 740.317 1440.9 759.035 1438.58 765.407 1444.26 C 766.165 1446.84 765.969 1448.3 765.564 1450.89 C 760.346 1454.63 728.379 1452.25 720.193 1452.24 C 719.802 1422.68 720.249 1393.05 720.298 1363.48 z"/>
<path transform="translate(0,0)" fill="rgb(22,45,67)" d="M 1417.65 1362.95 C 1432.73 1363.13 1447.81 1363.18 1462.89 1363.1 C 1462.94 1366.24 1463.62 1371.63 1461.54 1373.89 C 1450.96 1375.22 1439.66 1374.32 1428.99 1374.22 L 1428.95 1396.57 C 1435.93 1396.78 1442.86 1396.22 1449.83 1396.25 C 1454.57 1396.28 1459.22 1396.32 1462.73 1399.88 C 1463.24 1402.46 1463.23 1402.52 1462.03 1404.87 C 1454.18 1409.77 1438.28 1407.29 1428.84 1407.19 L 1428.83 1420.74 L 1428.82 1440.79 L 1465.46 1440.81 L 1465.44 1451.41 L 1418.01 1451.58 L 1417.65 1362.95 z"/>
<path transform="translate(0,0)" fill="rgb(22,45,67)" d="M 1269.87 1363.63 C 1279.23 1363.68 1309.74 1361.16 1316.45 1364.86 C 1316.59 1367.64 1317.26 1371.06 1315.89 1373.57 C 1304.82 1375.26 1291.95 1374.07 1280.69 1373.97 L 1280.54 1396.81 L 1315.44 1396.83 L 1315.34 1407.37 C 1304.38 1407.34 1292.53 1406.39 1281.7 1407.92 C 1280.15 1410.2 1280.63 1413.11 1280.67 1415.75 L 1280.67 1441.04 L 1294.02 1440.84 C 1299.74 1440.78 1313.94 1439.26 1318.03 1443.25 C 1318.07 1445.94 1318.59 1448.91 1316.89 1451.16 C 1301.96 1453.36 1284.92 1451.78 1269.76 1451.79 C 1269.98 1422.41 1270.02 1393.02 1269.87 1363.63 z"/>
<path transform="translate(0,0)" fill="rgb(22,45,67)" d="M 1190.23 1363.53 C 1193.36 1363.35 1196.63 1362.78 1199.59 1364 C 1209.73 1384.89 1215.49 1408.71 1224.25 1430.36 C 1231.86 1408.08 1239.62 1385.85 1247.53 1363.67 L 1260.34 1363.74 C 1257.47 1369.8 1255.01 1376.06 1252.44 1382.25 C 1242.51 1406.64 1234.65 1432.11 1223.92 1456.15 C 1216.24 1441.31 1211.22 1424.1 1205.27 1408.45 C 1199.91 1394.36 1193.02 1379.9 1189.09 1365.38 L 1190.23 1363.53 z"/>
<path transform="translate(0,0)" fill="rgb(22,45,67)" d="M 1363.36 1363.02 C 1366.93 1362.97 1371 1362.49 1374.32 1363.9 C 1375.52 1372.7 1374.89 1382.06 1374.86 1390.94 L 1374.55 1440.91 C 1384.52 1440.85 1395.03 1440.1 1404.93 1441.41 C 1406.56 1443.98 1406.18 1448.39 1406.29 1451.43 L 1363.26 1451.33 C 1363.08 1421.89 1363.12 1392.45 1363.36 1363.02 z"/>
<path transform="translate(0,0)" fill="rgb(22,45,67)" d="M 594.777 1364.04 L 606.014 1363.72 L 605.907 1452.34 C 602.207 1452.53 598.492 1452.49 594.787 1452.52 L 594.777 1364.04 z"/>
<path transform="translate(0,0)" fill="rgb(22,45,67)" d="M 1335.48 1363.42 C 1338.64 1363.35 1342.08 1362.84 1344.98 1364.28 C 1346.33 1379.26 1345.41 1394.99 1345.39 1410.05 C 1345.37 1423.85 1346.27 1438.45 1344.85 1452.15 C 1341.45 1452.19 1338.2 1452.51 1334.99 1451.19 C 1334.06 1438.84 1333.17 1372.36 1335.48 1363.42 z"/>
</svg>