<?xml version="1.0" encoding="UTF-8"?>
<!DOCTYPE svg PUBLIC "-//W3C//DTD SVG 1.1//EN" "http://www.w3.org/Graphics/SVG/1.1/DTD/svg11.dtd">
<svg xmlns="http://www.w3.org/2000/svg" version="1.1" width="430px" height="290px" style="shape-rendering:geometricPrecision; text-rendering:geometricPrecision; image-rendering:optimizeQuality; fill-rule:evenodd; clip-rule:evenodd" xmlns:xlink="http://www.w3.org/1999/xlink">
<g><path style="opacity:1" fill="#f7f7f7" d="M -0.5,-0.5 C 142.833,-0.5 286.167,-0.5 429.5,-0.5C 429.5,96.1667 429.5,192.833 429.5,289.5C 286.167,289.5 142.833,289.5 -0.5,289.5C -0.5,192.833 -0.5,96.1667 -0.5,-0.5 Z"/></g>
<g><path style="opacity:1" fill="#e2bf96" d="M 342.5,95.5 C 342.567,96.9587 342.234,98.2921 341.5,99.5C 340.41,97.2301 339.076,95.0634 337.5,93C 337.667,92.1667 337.833,91.3333 338,90.5C 338.612,93.1146 340.112,94.7813 342.5,95.5 Z"/></g>
<g><path style="opacity:1" fill="#5b5b5b" d="M 53.5,135.5 C 51.5853,135.216 49.9187,135.549 48.5,136.5C 47.325,136.719 46.325,136.386 45.5,135.5C 48.3092,134.2 50.9759,134.2 53.5,135.5 Z"/></g>
<g><path style="opacity:1" fill="#ca804f" d="M 95.5,96.5 C 95.2267,98.451 95.8934,99.951 97.5,101C 96.4479,102.119 95.2812,102.619 94,102.5C 93.2421,105.233 93.7421,107.733 95.5,110C 95.2167,113.765 95.0501,117.599 95,121.5C 94.9878,117.727 93.8211,114.394 91.5,111.5C 91.1667,112.167 90.8333,112.833 90.5,113.5C 91.5387,118.332 92.872,122.999 94.5,127.5C 93.5,127.5 92.5,127.5 91.5,127.5C 90.7422,124.513 89.9089,121.513 89,118.5C 88.1553,122.181 87.322,125.847 86.5,129.5C 86.8333,130.833 87.1667,132.167 87.5,133.5C 88.9347,132.176 89.9347,130.51 90.5,128.5C 92.0627,129.945 93.396,131.611 94.5,133.5C 98.2832,132.585 101.283,130.585 103.5,127.5C 104.406,129.386 105.406,131.22 106.5,133C 110.574,133.195 114.574,132.695 118.5,131.5C 118.5,130.167 118.5,128.833 118.5,127.5C 119.5,127.5 120.5,127.5 121.5,127.5C 121.672,129.492 121.005,131.158 119.5,132.5C 120.127,133.417 120.461,134.417 120.5,135.5C 113.943,133.112 108.777,134.778 105,140.5C 104.506,142.134 104.34,143.801 104.5,145.5C 102.914,144.852 101.247,144.352 99.5,144C 103.547,141.837 104.881,138.67 103.5,134.5C 102.817,134.863 102.15,135.196 101.5,135.5C 99.0336,134.366 96.367,134.199 93.5,135C 94.1667,135.667 94.8333,136.333 95.5,137C 93.6499,139.018 91.6499,140.851 89.5,142.5C 88.2309,140.305 88.2309,138.139 89.5,136C 87.6131,135.22 85.9464,135.387 84.5,136.5C 83.325,136.719 82.325,136.386 81.5,135.5C 82.6888,134.571 84.0222,134.238 85.5,134.5C 85.9412,120.987 89.2745,108.321 95.5,96.5 Z"/></g>
<g><path style="opacity:1" fill="#5c5b59" d="M 362.5,136.5 C 360.833,135.167 359.167,135.167 357.5,136.5C 356.325,136.719 355.325,136.386 354.5,135.5C 357.5,134.167 360.5,134.167 363.5,135.5C 363.376,136.107 363.043,136.44 362.5,136.5 Z"/></g>
<g><path style="opacity:1" fill="#6e6d6d" d="M 373.5,136.5 C 371.5,135.167 369.5,135.167 367.5,136.5C 366.957,136.44 366.624,136.107 366.5,135.5C 369.167,134.167 371.833,134.167 374.5,135.5C 374.376,136.107 374.043,136.44 373.5,136.5 Z"/></g>
<g><path style="opacity:1" fill="#656565" d="M 384.5,136.5 C 382.833,135.167 381.167,135.167 379.5,136.5C 378.325,136.719 377.325,136.386 376.5,135.5C 379.833,134.167 383.167,134.167 386.5,135.5C 386.043,136.298 385.376,136.631 384.5,136.5 Z"/></g>
<g><path style="opacity:1" fill="#5c5c5c" d="M 409.5,136.5 C 407.833,135.167 406.167,135.167 404.5,136.5C 403.325,136.719 402.325,136.386 401.5,135.5C 404.5,134.167 407.5,134.167 410.5,135.5C 410.376,136.107 410.043,136.44 409.5,136.5 Z"/></g>
<g><path style="opacity:1" fill="#545454" d="M 421.5,136.5 C 419.833,135.167 418.167,135.167 416.5,136.5C 415.711,136.217 415.044,135.717 414.5,135C 417.554,134.179 420.554,134.345 423.5,135.5C 423.043,136.298 422.376,136.631 421.5,136.5 Z"/></g>
<g><path style="opacity:1" fill="#190704" d="M 336.5,141.5 C 339.287,142.477 342.287,142.81 345.5,142.5C 345.795,140.265 345.461,138.265 344.5,136.5C 345.946,135.387 347.613,135.22 349.5,136C 348.363,141.082 348.196,146.249 349,151.5C 349.671,152.252 350.504,152.586 351.5,152.5C 352.833,152.833 352.833,153.167 351.5,153.5C 350.833,153.5 350.167,153.5 349.5,153.5C 347.143,153.663 344.81,153.497 342.5,153C 343.416,152.626 344.25,152.126 345,151.5C 345.497,148.854 345.664,146.187 345.5,143.5C 337.897,141.418 335.064,144.085 337,151.5C 337.75,152.126 338.584,152.626 339.5,153C 336.518,153.498 333.518,153.665 330.5,153.5C 330.5,153.167 330.5,152.833 330.5,152.5C 332.446,147.604 333.113,142.271 332.5,136.5C 333.209,135.596 334.209,135.263 335.5,135.5C 335.205,137.735 335.539,139.735 336.5,141.5 Z"/></g>
<g><path style="opacity:1" fill="#1d1d1d" d="M 68.5,134.5 C 71.0661,134.344 73.5661,134.678 76,135.5C 78.8274,137.254 78.9941,139.088 76.5,141C 73.2072,141.826 69.8738,142.326 66.5,142.5C 65.8122,147.136 67.6455,150.136 72,151.5C 74.1583,150.549 76.325,150.049 78.5,150C 73.5179,155.793 68.6846,155.627 64,149.5C 61.76,143.386 63.26,138.386 68.5,134.5 Z"/></g>
<g><path style="opacity:1" fill="#eaeaea" d="M 68.5,136.5 C 70.5,136.5 72.5,136.5 74.5,136.5C 74.5,137.833 74.5,139.167 74.5,140.5C 71.8806,140.232 69.3806,140.565 67,141.5C 66.3872,139.505 66.8872,137.838 68.5,136.5 Z"/></g>
<g><path style="opacity:1" fill="#060606" d="M 404.5,136.5 C 406.167,135.167 407.833,135.167 409.5,136.5C 408.539,138.265 408.205,140.265 408.5,142.5C 408.833,143.167 409.167,143.833 409.5,144.5C 408.371,146.628 408.204,148.961 409,151.5C 410.067,152.191 411.234,152.691 412.5,153C 409.167,153.667 405.833,153.667 402.5,153C 403.416,152.626 404.25,152.126 405,151.5C 405.816,146.316 405.65,141.316 404.5,136.5 Z"/></g>
<g><path style="opacity:1" fill="#351107" d="M 319.5,151.5 C 319.5,150.5 319.5,149.5 319.5,148.5C 321.338,145.019 323.004,141.353 324.5,137.5C 323.5,136.667 322.5,135.833 321.5,135C 323.902,134.186 326.235,134.353 328.5,135.5C 327.758,136.287 326.925,136.953 326,137.5C 324.109,142.362 321.942,147.028 319.5,151.5 Z"/></g>
<g><path style="opacity:1" fill="#976544" d="M 350.5,134.5 C 350.5,135.833 350.5,137.167 350.5,138.5C 349.827,140.96 349.494,143.46 349.5,146C 349.899,147.728 350.566,149.228 351.5,150.5C 351.5,151.167 351.5,151.833 351.5,152.5C 350.504,152.586 349.671,152.252 349,151.5C 348.196,146.249 348.363,141.082 349.5,136C 347.613,135.22 345.946,135.387 344.5,136.5C 343.325,136.719 342.325,136.386 341.5,135.5C 344.428,134.516 347.428,134.183 350.5,134.5 Z"/></g>
<g><path style="opacity:1" fill="#1a1a1a" d="M 362.5,136.5 C 361.378,138.288 361.211,140.288 362,142.5C 364.46,141.042 366.627,139.209 368.5,137C 368.272,136.601 367.938,136.435 367.5,136.5C 369.5,135.167 371.5,135.167 373.5,136.5C 370.717,138.067 368.051,139.9 365.5,142C 368.521,146.018 371.854,149.684 375.5,153C 373.833,153.667 372.167,153.667 370.5,153C 367.94,150.029 365.273,147.196 362.5,144.5C 361.353,146.765 361.186,149.098 362,151.5C 362.75,152.126 363.584,152.626 364.5,153C 361.5,153.667 358.5,153.667 355.5,153C 357.42,147.803 358.087,142.303 357.5,136.5C 359.167,135.167 360.833,135.167 362.5,136.5 Z"/></g>
<g><path style="opacity:1" fill="#181818" d="M 48.5,136.5 C 49.9187,135.549 51.5853,135.216 53.5,135.5C 54.9826,141.959 57.6493,147.793 61.5,153C 58.5,153.667 55.5,153.667 52.5,153C 53.91,152.632 54.91,151.799 55.5,150.5C 53.702,146.605 52.202,142.605 51,138.5C 48.7216,141.997 47.2216,145.831 46.5,150C 46.7549,151.326 47.4216,152.326 48.5,153C 42.8333,153.667 37.1667,153.667 31.5,153C 33.7969,150.105 33.9636,146.939 32,143.5C 24.9535,140.473 20.7868,142.639 19.5,150C 20.0933,151.882 21.4267,152.882 23.5,153C 20.5,153.667 17.5,153.667 14.5,153C 15.4162,152.626 16.2496,152.126 17,151.5C 19.9104,142.081 23.5771,133.081 28,124.5C 28.9454,124.905 29.6121,125.572 30,126.5C 32.6801,134.888 35.5134,143.221 38.5,151.5C 40.6114,152.848 42.4447,152.515 44,150.5C 46.0127,145.963 47.5127,141.296 48.5,136.5 Z"/></g>
<g><path style="opacity:1" fill="#ececec" d="M 26.5,130.5 C 28.2714,133.154 29.6047,136.154 30.5,139.5C 28.1667,140.833 25.8333,140.833 23.5,139.5C 24.3507,136.422 25.3507,133.422 26.5,130.5 Z"/></g>
<g><path style="opacity:1" fill="#0b0b0b" d="M 379.5,136.5 C 381.167,135.167 382.833,135.167 384.5,136.5C 383.355,140.311 383.188,144.311 384,148.5C 386.667,144.5 389.333,140.5 392,136.5C 393.884,134.424 396.051,134.09 398.5,135.5C 397.675,136.386 396.675,136.719 395.5,136.5C 395.334,141.511 395.501,146.511 396,151.5C 397.067,152.191 398.234,152.691 399.5,153C 396.5,153.667 393.5,153.667 390.5,153C 391,152.5 391.5,152 392,151.5C 392.667,147.5 392.667,143.5 392,139.5C 389.202,144.263 386.036,148.763 382.5,153C 380.833,153.667 379.167,153.667 377.5,153C 378.416,152.626 379.25,152.126 380,151.5C 380.816,146.316 380.65,141.316 379.5,136.5 Z"/></g>
<g><path style="opacity:1" fill="#1e120f" d="M 101.5,135.5 C 98.1566,137.184 95.4899,139.517 93.5,142.5C 95.9365,146.44 98.9365,149.94 102.5,153C 100.365,153.635 98.3646,153.301 96.5,152C 94.0414,149.554 91.7081,147.054 89.5,144.5C 88.3526,146.765 88.1859,149.098 89,151.5C 89.7504,152.126 90.5838,152.626 91.5,153C 89.5273,153.495 87.5273,153.662 85.5,153.5C 84.448,153.649 83.448,153.483 82.5,153C 84.4202,147.803 85.0868,142.303 84.5,136.5C 85.9464,135.387 87.6131,135.22 89.5,136C 88.2309,138.139 88.2309,140.305 89.5,142.5C 91.6499,140.851 93.6499,139.018 95.5,137C 94.8333,136.333 94.1667,135.667 93.5,135C 96.367,134.199 99.0336,134.366 101.5,135.5 Z"/></g>
<g><path style="opacity:1" fill="#737373" d="M 408.5,142.5 C 409.167,142.5 409.833,142.5 410.5,142.5C 412.833,143.167 415.167,143.833 417.5,144.5C 414.833,144.5 412.167,144.5 409.5,144.5C 409.167,143.833 408.833,143.167 408.5,142.5 Z"/></g>
<g><path style="opacity:1" fill="#e2874e" d="M 350.5,138.5 C 351.483,142.298 351.817,146.298 351.5,150.5C 350.566,149.228 349.899,147.728 349.5,146C 349.494,143.46 349.827,140.96 350.5,138.5 Z"/></g>
<g><path style="opacity:1" fill="#c58054" d="M 349.5,129.5 C 350.451,130.919 350.784,132.585 350.5,134.5C 347.428,134.183 344.428,134.516 341.5,135.5C 342.325,136.386 343.325,136.719 344.5,136.5C 345.461,138.265 345.795,140.265 345.5,142.5C 342.287,142.81 339.287,142.477 336.5,141.5C 336.104,138.956 336.771,136.789 338.5,135C 335.5,134.333 332.5,134.333 329.5,135C 330.527,135.513 331.527,136.013 332.5,136.5C 333.113,142.271 332.446,147.604 330.5,152.5C 331.164,147.527 331.497,142.527 331.5,137.5C 329.856,137.286 328.356,137.62 327,138.5C 327.298,144.275 325.798,149.442 322.5,154C 323.923,155.412 323.756,156.579 322,157.5C 321.282,156.549 320.449,156.383 319.5,157C 317.666,164.584 313.333,166.751 306.5,163.5C 306.157,161.517 306.824,160.183 308.5,159.5C 309.587,162.884 311.587,163.717 314.5,162C 317.229,158.969 318.895,155.469 319.5,151.5C 321.942,147.028 324.109,142.362 326,137.5C 326.925,136.953 327.758,136.287 328.5,135.5C 326.235,134.353 323.902,134.186 321.5,135C 322.5,135.833 323.5,136.667 324.5,137.5C 323.004,141.353 321.338,145.019 319.5,148.5C 317.59,144.683 316.257,140.683 315.5,136.5C 316.167,136.167 316.833,135.833 317.5,135.5C 317.248,138.32 317.748,140.986 319,143.5C 320.698,142.471 321.532,140.971 321.5,139C 320.622,137.2 319.955,135.367 319.5,133.5C 327.833,132.167 336.167,132.167 344.5,133.5C 344.021,129.146 343.354,124.812 342.5,120.5C 342.833,119.833 343.167,119.167 343.5,118.5C 345.96,122.834 346.96,127.501 346.5,132.5C 347.5,132.5 348.5,132.5 349.5,132.5C 349.5,131.5 349.5,130.5 349.5,129.5 Z"/></g>
<g><path style="opacity:1" fill="#4a1a0a" d="M 336.5,141.5 C 335.539,139.735 335.205,137.735 335.5,135.5C 334.209,135.263 333.209,135.596 332.5,136.5C 331.527,136.013 330.527,135.513 329.5,135C 332.5,134.333 335.5,134.333 338.5,135C 336.771,136.789 336.104,138.956 336.5,141.5 Z"/></g>
<g><path style="opacity:1" fill="#0c0c0c" d="M 416.5,136.5 C 418.167,135.167 419.833,135.167 421.5,136.5C 420.352,140.981 420.185,145.648 421,150.5C 421.903,151.701 423.069,152.535 424.5,153C 421.5,153.667 418.5,153.667 415.5,153C 417.314,150.519 417.98,147.685 417.5,144.5C 415.167,143.833 412.833,143.167 410.5,142.5C 412.833,142.5 415.167,142.5 417.5,142.5C 417.795,140.265 417.461,138.265 416.5,136.5 Z"/></g>
<g><path style="opacity:1" fill="#c68052" d="M 349.5,153.5 C 349.336,159.167 349.003,159.5 348.5,154.5C 343.296,154.298 338.129,154.631 333,155.5C 331.624,155.316 330.791,154.649 330.5,153.5C 333.518,153.665 336.518,153.498 339.5,153C 338.584,152.626 337.75,152.126 337,151.5C 335.064,144.085 337.897,141.418 345.5,143.5C 345.664,146.187 345.497,148.854 345,151.5C 344.25,152.126 343.416,152.626 342.5,153C 344.81,153.497 347.143,153.663 349.5,153.5 Z"/></g>
<g><path style="opacity:1" fill="#d57f47" d="M 342.5,95.5 C 340.112,94.7813 338.612,93.1146 338,90.5C 337.833,91.3333 337.667,92.1667 337.5,93C 339.076,95.0634 340.41,97.2301 341.5,99.5C 345.443,109.161 348.11,119.161 349.5,129.5C 349.5,130.5 349.5,131.5 349.5,132.5C 348.5,132.5 347.5,132.5 346.5,132.5C 346.96,127.501 345.96,122.834 343.5,118.5C 343.167,119.167 342.833,119.833 342.5,120.5C 343.354,124.812 344.021,129.146 344.5,133.5C 336.167,132.167 327.833,132.167 319.5,133.5C 319.955,135.367 320.622,137.2 321.5,139C 321.532,140.971 320.698,142.471 319,143.5C 317.748,140.986 317.248,138.32 317.5,135.5C 309.324,134.179 300.991,134.179 292.5,135.5C 292.957,136.298 293.624,136.631 294.5,136.5C 294.827,141.214 294.493,145.88 293.5,150.5C 291.976,148.517 290.976,146.184 290.5,143.5C 289.943,145.332 288.943,146.665 287.5,147.5C 287.763,143.4 287.43,139.4 286.5,135.5C 286.175,133.868 285.175,132.868 283.5,132.5C 280.187,133.51 276.854,133.51 273.5,132.5C 273.769,134.429 273.269,136.095 272,137.5C 269.742,135.57 267.242,134.07 264.5,133C 259.845,132.501 255.179,132.334 250.5,132.5C 250.5,133.833 250.5,135.167 250.5,136.5C 250.062,136.435 249.728,136.601 249.5,137C 251.25,138.754 251.917,140.921 251.5,143.5C 251.823,149.69 251.49,155.69 250.5,161.5C 249.957,161.56 249.624,161.893 249.5,162.5C 252.833,163.833 256.167,163.833 259.5,162.5C 258.311,161.571 256.978,161.238 255.5,161.5C 255.5,160.5 255.5,159.5 255.5,158.5C 261.602,156.849 267.602,157.183 273.5,159.5C 274.167,159.167 274.833,158.833 275.5,158.5C 272.748,156.664 269.748,155.664 266.5,155.5C 266.085,153.052 267.085,151.719 269.5,151.5C 271.334,152.754 273.334,153.421 275.5,153.5C 276.923,155.545 278.923,156.545 281.5,156.5C 281.5,157.5 281.5,158.5 281.5,159.5C 282.833,159.5 284.167,159.5 285.5,159.5C 285.5,158.5 285.5,157.5 285.5,156.5C 284.325,156.719 283.325,156.386 282.5,155.5C 285.596,154.657 287.429,155.991 288,159.5C 292.453,158.324 296.953,158.324 301.5,159.5C 301.5,158.5 301.5,157.5 301.5,156.5C 298.998,156.749 296.498,157.083 294,157.5C 291.444,157.637 289.277,156.804 287.5,155C 292.823,154.501 298.156,154.334 303.5,154.5C 303.711,157.848 304.711,160.848 306.5,163.5C 313.333,166.751 317.666,164.584 319.5,157C 320.449,156.383 321.282,156.549 322,157.5C 323.756,156.579 323.923,155.412 322.5,154C 325.798,149.442 327.298,144.275 327,138.5C 328.356,137.62 329.856,137.286 331.5,137.5C 331.497,142.527 331.164,147.527 330.5,152.5C 330.5,152.833 330.5,153.167 330.5,153.5C 330.791,154.649 331.624,155.316 333,155.5C 338.129,154.631 343.296,154.298 348.5,154.5C 349.003,159.5 349.336,159.167 349.5,153.5C 350.167,153.5 350.833,153.5 351.5,153.5C 350.654,175.017 344.988,195.017 334.5,213.5C 335.11,217.093 336.444,217.426 338.5,214.5C 343.712,207.409 347.879,199.743 351,191.5C 350.356,199.806 347.689,207.473 343,214.5C 339.336,219.991 335.502,225.324 331.5,230.5C 322.617,237.712 314.284,245.712 306.5,254.5C 305.675,255.386 304.675,255.719 303.5,255.5C 303.5,256.5 303.5,257.5 303.5,258.5C 263.136,286.53 219.469,292.696 172.5,277C 163.463,273.11 154.797,268.61 146.5,263.5C 133.573,253.908 121.906,242.908 111.5,230.5C 99.5966,210.974 91.0966,189.974 86,167.5C 85.5008,162.845 85.3342,158.179 85.5,153.5C 87.5273,153.662 89.5273,153.495 91.5,153C 90.5838,152.626 89.7504,152.126 89,151.5C 88.1859,149.098 88.3526,146.765 89.5,144.5C 91.7081,147.054 94.0414,149.554 96.5,152C 98.3646,153.301 100.365,153.635 102.5,153C 98.9365,149.94 95.9365,146.44 93.5,142.5C 95.4899,139.517 98.1566,137.184 101.5,135.5C 102.15,135.196 102.817,134.863 103.5,134.5C 104.881,138.67 103.547,141.837 99.5,144C 101.247,144.352 102.914,144.852 104.5,145.5C 105.5,152.652 109.5,155.152 116.5,153C 121.721,149.176 121.221,148.676 115,151.5C 108.828,149.272 106.828,144.939 109,138.5C 111.448,135.455 114.281,134.955 117.5,137C 118.053,138.878 119.053,140.378 120.5,141.5C 122.821,140.645 125.154,140.978 127.5,142.5C 124.893,143.318 122.226,143.818 119.5,144C 122.975,146.068 124.475,149.234 124,153.5C 125.699,154.406 127.533,154.739 129.5,154.5C 129.5,155.833 129.5,157.167 129.5,158.5C 132.694,158.824 133.694,157.658 132.5,155C 133.025,154.308 133.692,153.808 134.5,153.5C 138.133,154.515 141.466,154.515 144.5,153.5C 149.303,154.113 151.637,153.78 151.5,152.5C 151.5,149.833 151.5,147.167 151.5,144.5C 154.167,144.5 156.833,144.5 159.5,144.5C 159.98,147.685 159.314,150.519 157.5,153C 162.294,154.007 164.294,153.84 163.5,152.5C 163.5,149.5 163.5,146.5 163.5,143.5C 165.308,142.082 165.975,140.082 165.5,137.5C 167.5,137.5 169.5,137.5 171.5,137.5C 171.296,141.416 171.296,145.082 171.5,148.5C 168.819,152.405 167.986,156.738 169,161.5C 169.95,153.916 174.117,151.416 181.5,154C 182.416,154.278 183.082,154.778 183.5,155.5C 183.5,157.833 183.5,160.167 183.5,162.5C 187.825,163.243 192.825,163.243 198.5,162.5C 197.054,160.382 196.387,158.049 196.5,155.5C 199.942,156.172 202.609,155.172 204.5,152.5C 209.79,147.978 210.623,142.644 207,136.5C 203.333,133.833 199.667,133.833 196,136.5C 195.692,135.692 195.192,135.025 194.5,134.5C 192.833,135.333 191.167,136.167 189.5,137C 191.444,144.222 192.111,151.722 191.5,159.5C 190.5,159.5 189.5,159.5 188.5,159.5C 188.371,157.784 188.038,156.117 187.5,154.5C 185.406,151.903 184.073,148.903 183.5,145.5C 183.493,142.962 183.159,140.462 182.5,138C 183.164,135.834 184.164,133.834 185.5,132C 185.507,130.188 184.84,128.688 183.5,127.5C 182.232,129.304 181.565,131.304 181.5,133.5C 179.5,133.5 177.5,133.5 175.5,133.5C 175.626,131.8 176.293,130.3 177.5,129C 177.167,128.5 176.833,128 176.5,127.5C 174.78,128.955 172.78,129.788 170.5,130C 170.833,130.333 171.167,130.667 171.5,131C 170.541,132.464 169.208,133.297 167.5,133.5C 161.805,132.808 156.138,132.475 150.5,132.5C 148.443,132.436 146.777,133.102 145.5,134.5C 144.624,134.369 143.957,134.702 143.5,135.5C 144.689,136.429 146.022,136.762 147.5,136.5C 147.821,141.695 147.487,146.695 146.5,151.5C 145.034,150.653 144.2,149.32 144,147.5C 143.586,147.957 143.086,148.291 142.5,148.5C 139.528,147.164 139.195,145.664 141.5,144C 139.638,140.851 138.971,137.351 139.5,133.5C 135.298,133.183 131.298,133.517 127.5,134.5C 126.833,135.167 126.167,135.833 125.5,136.5C 123.602,137.734 121.935,137.401 120.5,135.5C 120.461,134.417 120.127,133.417 119.5,132.5C 121.005,131.158 121.672,129.492 121.5,127.5C 120.5,127.5 119.5,127.5 118.5,127.5C 118.5,128.833 118.5,130.167 118.5,131.5C 114.574,132.695 110.574,133.195 106.5,133C 105.406,131.22 104.406,129.386 103.5,127.5C 101.283,130.585 98.2832,132.585 94.5,133.5C 93.396,131.611 92.0627,129.945 90.5,128.5C 89.9347,130.51 88.9347,132.176 87.5,133.5C 87.1667,132.167 86.8333,130.833 86.5,129.5C 87.322,125.847 88.1553,122.181 89,118.5C 89.9089,121.513 90.7422,124.513 91.5,127.5C 92.5,127.5 93.5,127.5 94.5,127.5C 92.872,122.999 91.5387,118.332 90.5,113.5C 90.8333,112.833 91.1667,112.167 91.5,111.5C 93.8211,114.394 94.9878,117.727 95,121.5C 95.0501,117.599 95.2167,113.765 95.5,110C 93.7421,107.733 93.2421,105.233 94,102.5C 95.2812,102.619 96.4479,102.119 97.5,101C 95.8934,99.951 95.2267,98.451 95.5,96.5C 98.2098,89.4136 101.71,82.7469 106,76.5C 114.146,66.3867 122.646,56.5533 131.5,47C 170.335,14.0984 214.335,5.0984 263.5,20C 293.358,29.3409 317.192,46.8409 335,72.5C 337.333,77.5 339.667,82.5 342,87.5C 342.497,90.146 342.664,92.8127 342.5,95.5 Z"/></g>
<g><path style="opacity:1" fill="#c07f54" d="M 127.5,134.5 C 131.298,133.517 135.298,133.183 139.5,133.5C 138.971,137.351 139.638,140.851 141.5,144C 139.195,145.664 139.528,147.164 142.5,148.5C 143.086,148.291 143.586,147.957 144,147.5C 144.2,149.32 145.034,150.653 146.5,151.5C 145.833,152.167 145.167,152.833 144.5,153.5C 141.466,154.515 138.133,154.515 134.5,153.5C 133.692,153.808 133.025,154.308 132.5,155C 133.694,157.658 132.694,158.824 129.5,158.5C 129.5,157.167 129.5,155.833 129.5,154.5C 127.533,154.739 125.699,154.406 124,153.5C 124.475,149.234 122.975,146.068 119.5,144C 122.226,143.818 124.893,143.318 127.5,142.5C 125.154,140.978 122.821,140.645 120.5,141.5C 120.5,139.5 120.5,137.5 120.5,135.5C 121.935,137.401 123.602,137.734 125.5,136.5C 125.332,141.532 126.332,141.699 128.5,137C 130.473,136.505 132.473,136.338 134.5,136.5C 134.795,138.735 134.461,140.735 133.5,142.5C 134.244,139.05 132.91,137.384 129.5,137.5C 129.5,139.5 129.5,141.5 129.5,143.5C 127.436,145.562 125.769,147.895 124.5,150.5C 125.348,152.761 127.015,153.761 129.5,153.5C 131.355,153.66 132.688,152.993 133.5,151.5C 135.156,152.146 136.823,152.813 138.5,153.5C 142.315,152.378 142.315,151.712 138.5,151.5C 138.666,146.489 138.499,141.489 138,136.5C 134.757,134.737 131.257,134.071 127.5,134.5 Z"/></g>
<g><path style="opacity:1" fill="#1a0b08" d="M 204.5,152.5 C 201.692,153.929 198.692,154.595 195.5,154.5C 195.232,157.119 195.565,159.619 196.5,162C 194.5,162.667 192.5,162.667 190.5,162C 191.252,161.329 191.586,160.496 191.5,159.5C 192.111,151.722 191.444,144.222 189.5,137C 191.167,136.167 192.833,135.333 194.5,134.5C 195.192,135.025 195.692,135.692 196,136.5C 199.667,133.833 203.333,133.833 207,136.5C 210.623,142.644 209.79,147.978 204.5,152.5 Z"/></g>
<g><path style="opacity:1" fill="#23120b" d="M 145.5,134.5 C 148.187,134.336 150.854,134.503 153.5,135C 151.709,137.106 151.042,139.606 151.5,142.5C 154.167,142.5 156.833,142.5 159.5,142.5C 159.5,140.5 159.5,138.5 159.5,136.5C 161.167,135.167 162.833,135.167 164.5,136.5C 163.532,138.607 163.198,140.941 163.5,143.5C 163.5,146.5 163.5,149.5 163.5,152.5C 164.294,153.84 162.294,154.007 157.5,153C 159.314,150.519 159.98,147.685 159.5,144.5C 156.833,144.5 154.167,144.5 151.5,144.5C 151.5,147.167 151.5,149.833 151.5,152.5C 151.637,153.78 149.303,154.113 144.5,153.5C 145.167,152.833 145.833,152.167 146.5,151.5C 147.487,146.695 147.821,141.695 147.5,136.5C 146.022,136.762 144.689,136.429 143.5,135.5C 143.957,134.702 144.624,134.369 145.5,134.5 Z"/></g>
<g><path style="opacity:1" fill="#170c06" d="M 261.5,153.5 C 259.167,153.5 256.833,153.5 254.5,153.5C 254.664,156.187 254.497,158.854 254,161.5C 253.667,161.167 253.333,160.833 253,160.5C 252.827,154.652 252.327,148.985 251.5,143.5C 251.917,140.921 251.25,138.754 249.5,137C 249.728,136.601 250.062,136.435 250.5,136.5C 251.885,135.386 253.385,134.386 255,133.5C 255.249,134.624 255.749,135.624 256.5,136.5C 264.017,132.76 268.35,135.093 269.5,143.5C 268.713,148.439 266.047,151.772 261.5,153.5 Z"/></g>
<g><path style="opacity:1" fill="#cb8351" d="M 258.5,137.5 C 261.044,137.104 263.211,137.771 265,139.5C 267.686,148.531 264.519,152.531 255.5,151.5C 255.5,149.833 255.5,148.167 255.5,146.5C 257.741,145.7 258.741,144.034 258.5,141.5C 259.5,141.5 260.5,141.5 261.5,141.5C 261.167,143.5 260.833,145.5 260.5,147.5C 261.833,147.5 263.167,147.5 264.5,147.5C 264.322,144.784 263.822,142.117 263,139.5C 261.378,138.901 259.878,138.234 258.5,137.5 Z"/></g>
<g><path style="opacity:1" fill="#1e0d08" d="M 286.5,135.5 C 287.43,139.4 287.763,143.4 287.5,147.5C 287.5,148.833 287.5,150.167 287.5,151.5C 291.315,151.712 291.315,152.378 287.5,153.5C 285.823,152.813 284.156,152.146 282.5,151.5C 282.389,152.117 282.056,152.617 281.5,153C 279.527,153.495 277.527,153.662 275.5,153.5C 273.752,151.84 273.252,149.84 274,147.5C 276.651,144.924 279.818,143.591 283.5,143.5C 283.5,141.167 283.5,138.833 283.5,136.5C 278.896,135.379 276.063,137.045 275,141.5C 274.082,138.937 274.582,136.77 276.5,135C 279.888,134.341 283.221,134.508 286.5,135.5 Z"/></g>
<g><path style="opacity:1" fill="#c97e50" d="M 282.5,151.5 C 279.739,152.085 278.073,151.085 277.5,148.5C 282.697,142.639 284.364,143.639 282.5,151.5 Z"/></g>
<g><path style="opacity:1" fill="#c97f50" d="M 286.5,135.5 C 283.221,134.508 279.888,134.341 276.5,135C 274.582,136.77 274.082,138.937 275,141.5C 276.063,137.045 278.896,135.379 283.5,136.5C 283.5,138.833 283.5,141.167 283.5,143.5C 279.818,143.591 276.651,144.924 274,147.5C 273.252,149.84 273.752,151.84 275.5,153.5C 273.334,153.421 271.334,152.754 269.5,151.5C 267.085,151.719 266.085,153.052 266.5,155.5C 269.748,155.664 272.748,156.664 275.5,158.5C 274.833,158.833 274.167,159.167 273.5,159.5C 267.602,157.183 261.602,156.849 255.5,158.5C 255.5,157.167 255.5,155.833 255.5,154.5C 257.735,154.795 259.735,154.461 261.5,153.5C 266.047,151.772 268.713,148.439 269.5,143.5C 268.35,135.093 264.017,132.76 256.5,136.5C 255.749,135.624 255.249,134.624 255,133.5C 253.385,134.386 251.885,135.386 250.5,136.5C 250.5,135.167 250.5,133.833 250.5,132.5C 255.179,132.334 259.845,132.501 264.5,133C 267.242,134.07 269.742,135.57 272,137.5C 273.269,136.095 273.769,134.429 273.5,132.5C 276.854,133.51 280.187,133.51 283.5,132.5C 285.175,132.868 286.175,133.868 286.5,135.5 Z"/></g>
<g><path style="opacity:1" fill="#221007" d="M 120.5,135.5 C 120.5,137.5 120.5,139.5 120.5,141.5C 119.053,140.378 118.053,138.878 117.5,137C 114.281,134.955 111.448,135.455 109,138.5C 106.828,144.939 108.828,149.272 115,151.5C 121.221,148.676 121.721,149.176 116.5,153C 109.5,155.152 105.5,152.652 104.5,145.5C 104.34,143.801 104.506,142.134 105,140.5C 108.777,134.778 113.943,133.112 120.5,135.5 Z"/></g>
<g><path style="opacity:1" fill="#cc7e4c" d="M 294.5,136.5 C 294.833,136.5 295.167,136.5 295.5,136.5C 296.65,141.316 296.816,146.316 296,151.5C 295.25,152.126 294.416,152.626 293.5,153C 296.833,153.667 300.167,153.667 303.5,153C 302.234,152.691 301.067,152.191 300,151.5C 299.501,146.511 299.334,141.511 299.5,136.5C 301.527,136.338 303.527,136.505 305.5,137C 306.056,137.383 306.389,137.883 306.5,138.5C 306.369,139.376 306.702,140.043 307.5,140.5C 308.057,138.668 309.057,137.335 310.5,136.5C 313.121,141.525 315.454,146.692 317.5,152C 316.964,155.072 315.63,157.739 313.5,160C 311.609,160.309 310.275,159.475 309.5,157.5C 308.702,157.957 308.369,158.624 308.5,159.5C 306.824,160.183 306.157,161.517 306.5,163.5C 304.711,160.848 303.711,157.848 303.5,154.5C 298.156,154.334 292.823,154.501 287.5,155C 289.277,156.804 291.444,157.637 294,157.5C 296.498,157.083 298.998,156.749 301.5,156.5C 301.5,157.5 301.5,158.5 301.5,159.5C 296.953,158.324 292.453,158.324 288,159.5C 287.429,155.991 285.596,154.657 282.5,155.5C 283.325,156.386 284.325,156.719 285.5,156.5C 285.5,157.5 285.5,158.5 285.5,159.5C 284.167,159.5 282.833,159.5 281.5,159.5C 281.5,158.5 281.5,157.5 281.5,156.5C 278.923,156.545 276.923,155.545 275.5,153.5C 277.527,153.662 279.527,153.495 281.5,153C 282.056,152.617 282.389,152.117 282.5,151.5C 284.156,152.146 285.823,152.813 287.5,153.5C 291.315,152.378 291.315,151.712 287.5,151.5C 287.5,150.167 287.5,148.833 287.5,147.5C 288.943,146.665 289.943,145.332 290.5,143.5C 290.976,146.184 291.976,148.517 293.5,150.5C 294.493,145.88 294.827,141.214 294.5,136.5 Z"/></g>
<g><path style="opacity:1" fill="#e17e36" d="M 133.5,142.5 C 132.432,143.434 131.099,143.768 129.5,143.5C 129.5,141.5 129.5,139.5 129.5,137.5C 132.91,137.384 134.244,139.05 133.5,142.5 Z"/></g>
<g><path style="opacity:1" fill="#1c0a06" d="M 315.5,136.5 C 316.257,140.683 317.59,144.683 319.5,148.5C 319.5,149.5 319.5,150.5 319.5,151.5C 318.895,155.469 317.229,158.969 314.5,162C 311.587,163.717 309.587,162.884 308.5,159.5C 308.369,158.624 308.702,157.957 309.5,157.5C 310.275,159.475 311.609,160.309 313.5,160C 315.63,157.739 316.964,155.072 317.5,152C 315.454,146.692 313.121,141.525 310.5,136.5C 312.167,135.167 313.833,135.167 315.5,136.5 Z"/></g>
<g><path style="opacity:1" fill="#e17a45" d="M 258.5,137.5 C 259.878,138.234 261.378,138.901 263,139.5C 263.822,142.117 264.322,144.784 264.5,147.5C 263.167,147.5 261.833,147.5 260.5,147.5C 260.833,145.5 261.167,143.5 261.5,141.5C 260.5,141.5 259.5,141.5 258.5,141.5C 258.741,144.034 257.741,145.7 255.5,146.5C 255.187,143.753 255.52,141.086 256.5,138.5C 257.183,138.137 257.85,137.804 258.5,137.5 Z"/></g>
<g><path style="opacity:1" fill="#1f0e06" d="M 183.5,145.5 C 184.073,148.903 185.406,151.903 187.5,154.5C 186.224,156.562 185.39,158.896 185,161.5C 184.809,159.292 184.309,157.292 183.5,155.5C 183.082,154.778 182.416,154.278 181.5,154C 174.117,151.416 169.95,153.916 169,161.5C 167.986,156.738 168.819,152.405 171.5,148.5C 172.821,145.187 174.154,141.854 175.5,138.5C 175.392,137.558 175.059,136.725 174.5,136C 176.441,135.257 178.274,135.424 180,136.5C 180.725,139.79 181.892,142.79 183.5,145.5 Z"/></g>
<g><path style="opacity:1" fill="#cb7f50" d="M 176.5,139.5 C 179.208,142.956 180.541,146.956 180.5,151.5C 177.753,151.813 175.086,151.48 172.5,150.5C 173.84,146.81 175.174,143.143 176.5,139.5 Z"/></g>
<g><path style="opacity:1" fill="#5d331a" d="M 317.5,135.5 C 316.833,135.833 316.167,136.167 315.5,136.5C 313.833,135.167 312.167,135.167 310.5,136.5C 309.057,137.335 308.057,138.668 307.5,140.5C 306.702,140.043 306.369,139.376 306.5,138.5C 307.404,137.791 307.737,136.791 307.5,135.5C 303.298,135.183 299.298,135.517 295.5,136.5C 295.167,136.5 294.833,136.5 294.5,136.5C 293.624,136.631 292.957,136.298 292.5,135.5C 300.991,134.179 309.324,134.179 317.5,135.5 Z"/></g>
<g><path style="opacity:1" fill="#b17a54" d="M 202.5,151.5 C 202.693,148.692 203.36,146.025 204.5,143.5C 197.082,141.913 194.748,144.579 197.5,151.5C 196.504,151.586 195.671,151.252 195,150.5C 194.333,146.833 194.333,143.167 195,139.5C 197.497,137.522 200.331,137.022 203.5,138C 205.429,141.256 205.929,144.756 205,148.5C 204.623,149.942 203.79,150.942 202.5,151.5 Z"/></g>
<g><path style="opacity:1" fill="#dd7e49" d="M 202.5,151.5 C 200.833,151.5 199.167,151.5 197.5,151.5C 194.748,144.579 197.082,141.913 204.5,143.5C 203.36,146.025 202.693,148.692 202.5,151.5 Z"/></g>
<g><path style="opacity:1" fill="#dd7e39" d="M 197.5,138.5 C 201.241,137.599 203.241,138.932 203.5,142.5C 201.473,142.662 199.473,142.495 197.5,142C 196.316,140.855 196.316,139.688 197.5,138.5 Z"/></g>
<g><path style="opacity:1" fill="#160201" d="M 295.5,136.5 C 299.298,135.517 303.298,135.183 307.5,135.5C 307.737,136.791 307.404,137.791 306.5,138.5C 306.389,137.883 306.056,137.383 305.5,137C 303.527,136.505 301.527,136.338 299.5,136.5C 299.334,141.511 299.501,146.511 300,151.5C 301.067,152.191 302.234,152.691 303.5,153C 300.167,153.667 296.833,153.667 293.5,153C 294.416,152.626 295.25,152.126 296,151.5C 296.816,146.316 296.65,141.316 295.5,136.5 Z"/></g>
<g><path style="opacity:1" fill="#24120c" d="M 127.5,134.5 C 131.257,134.071 134.757,134.737 138,136.5C 138.499,141.489 138.666,146.489 138.5,151.5C 142.315,151.712 142.315,152.378 138.5,153.5C 136.823,152.813 135.156,152.146 133.5,151.5C 132.688,152.993 131.355,153.66 129.5,153.5C 127.015,153.761 125.348,152.761 124.5,150.5C 125.769,147.895 127.436,145.562 129.5,143.5C 131.099,143.768 132.432,143.434 133.5,142.5C 134.461,140.735 134.795,138.735 134.5,136.5C 132.473,136.338 130.473,136.505 128.5,137C 126.332,141.699 125.332,141.532 125.5,136.5C 126.167,135.833 126.833,135.167 127.5,134.5 Z"/></g>
<g><path style="opacity:1" fill="#cc804e" d="M 133.5,151.5 C 130.739,152.085 129.073,151.085 128.5,148.5C 133.697,142.639 135.364,143.639 133.5,151.5 Z"/></g>
<g><path style="opacity:1" fill="#c37c4c" d="M 183.5,145.5 C 181.892,142.79 180.725,139.79 180,136.5C 178.274,135.424 176.441,135.257 174.5,136C 175.059,136.725 175.392,137.558 175.5,138.5C 174.154,141.854 172.821,145.187 171.5,148.5C 171.296,145.082 171.296,141.416 171.5,137.5C 169.5,137.5 167.5,137.5 165.5,137.5C 165.975,140.082 165.308,142.082 163.5,143.5C 163.198,140.941 163.532,138.607 164.5,136.5C 165.043,136.44 165.376,136.107 165.5,135.5C 162.554,134.345 159.554,134.179 156.5,135C 157.244,136.039 158.244,136.539 159.5,136.5C 159.5,138.5 159.5,140.5 159.5,142.5C 156.833,142.5 154.167,142.5 151.5,142.5C 151.042,139.606 151.709,137.106 153.5,135C 150.854,134.503 148.187,134.336 145.5,134.5C 146.777,133.102 148.443,132.436 150.5,132.5C 156.138,132.475 161.805,132.808 167.5,133.5C 169.208,133.297 170.541,132.464 171.5,131C 171.167,130.667 170.833,130.333 170.5,130C 172.78,129.788 174.78,128.955 176.5,127.5C 176.833,128 177.167,128.5 177.5,129C 176.293,130.3 175.626,131.8 175.5,133.5C 177.5,133.5 179.5,133.5 181.5,133.5C 181.565,131.304 182.232,129.304 183.5,127.5C 184.84,128.688 185.507,130.188 185.5,132C 184.164,133.834 183.164,135.834 182.5,138C 183.159,140.462 183.493,142.962 183.5,145.5 Z"/></g>
<g><path style="opacity:1" fill="#542808" d="M 164.5,136.5 C 162.833,135.167 161.167,135.167 159.5,136.5C 158.244,136.539 157.244,136.039 156.5,135C 159.554,134.179 162.554,134.345 165.5,135.5C 165.376,136.107 165.043,136.44 164.5,136.5 Z"/></g>
<g><path style="opacity:1" fill="#1f0d08" d="M 234.5,124.5 C 236.335,125.122 237.502,126.456 238,128.5C 240,135.167 242,141.833 244,148.5C 244.615,150.116 245.615,151.449 247,152.5C 247.814,154.902 247.647,157.235 246.5,159.5C 245.866,157.433 244.866,155.6 243.5,154C 237.833,153.333 232.167,153.333 226.5,154C 224.765,156.192 223.598,158.692 223,161.5C 221.621,156.785 222.621,152.785 226,149.5C 228.857,141.132 231.69,132.798 234.5,124.5 Z"/></g>
<g><path style="opacity:1" fill="#cc7d4a" d="M 233.5,130.5 C 235.652,132.369 236.986,134.869 237.5,138C 238.821,142.441 239.821,146.941 240.5,151.5C 236.116,151.826 231.783,151.492 227.5,150.5C 229.814,143.905 231.814,137.238 233.5,130.5 Z"/></g>
<g><path style="opacity:1" fill="#623c1c" d="M 220.5,89.5 C 229.318,88.5067 238.318,88.1734 247.5,88.5C 247.5,94.1667 247.5,99.8333 247.5,105.5C 246.512,100.36 246.179,95.0262 246.5,89.5C 237.833,89.5 229.167,89.5 220.5,89.5 Z"/></g>
<g><path style="opacity:1" fill="#090205" d="M 247.5,105.5 C 247.5,99.8333 247.5,94.1667 247.5,88.5C 238.318,88.1734 229.318,88.5067 220.5,89.5C 216.467,95.338 211.633,96.0046 206,91.5C 203.189,81.9677 206.689,78.1343 216.5,80C 217.691,80.6979 218.691,81.5313 219.5,82.5C 228.44,84.4722 237.773,85.1389 247.5,84.5C 247.5,70.1667 247.5,55.8333 247.5,41.5C 248.255,39.5337 249.421,39.2004 251,40.5C 251.667,62.1667 251.667,83.8333 251,105.5C 249.624,108.125 248.458,108.125 247.5,105.5 Z"/></g>
<g><path style="opacity:1" fill="#7a4d26" d="M 247.5,41.5 C 247.5,55.8333 247.5,70.1667 247.5,84.5C 237.773,85.1389 228.44,84.4722 219.5,82.5C 228.416,83.4711 237.416,83.8044 246.5,83.5C 246.171,69.3234 246.504,55.3234 247.5,41.5 Z"/></g>
<g><path style="opacity:1" fill="#a06946" d="M 239.5,64.5 C 238.278,68.1275 235.612,69.7941 231.5,69.5C 228.771,69.7052 226.438,68.8718 224.5,67C 223.663,65.9887 223.33,64.8221 223.5,63.5C 215.167,63.5 206.833,63.5 198.5,63.5C 198.829,77.3435 198.496,91.0102 197.5,104.5C 197.5,90.5 197.5,76.5 197.5,62.5C 206.525,62.1685 215.525,62.5018 224.5,63.5C 229.099,69.7528 234.099,70.0861 239.5,64.5 Z"/></g>
<g><path style="opacity:1" fill="#ac6f45" d="M 197.5,39.5 C 196.178,39.33 195.011,39.6634 194,40.5C 193.333,62.5 193.333,84.5 194,106.5C 195.145,107.684 196.312,107.684 197.5,106.5C 196.622,109.85 195.122,110.183 193,107.5C 192.333,84.8333 192.333,62.1667 193,39.5C 194.689,36.8669 196.189,36.8669 197.5,39.5 Z"/></g>
<g><path style="opacity:1" fill="#0a0204" d="M 197.5,39.5 C 197.5,39.8333 197.5,40.1667 197.5,40.5C 197.5,46.5 197.5,52.5 197.5,58.5C 206.349,58.8264 215.016,58.493 223.5,57.5C 227.785,51.7929 232.785,51.1262 238.5,55.5C 239.484,58.4281 239.817,61.4281 239.5,64.5C 234.099,70.0861 229.099,69.7528 224.5,63.5C 215.525,62.5018 206.525,62.1685 197.5,62.5C 197.5,76.5 197.5,90.5 197.5,104.5C 197.5,105.167 197.5,105.833 197.5,106.5C 196.312,107.684 195.145,107.684 194,106.5C 193.333,84.5 193.333,62.5 194,40.5C 195.011,39.6634 196.178,39.33 197.5,39.5 Z"/></g>
<g><path style="opacity:1" fill="#703f21" d="M 197.5,40.5 C 198.489,45.9753 198.822,51.642 198.5,57.5C 206.833,57.5 215.167,57.5 223.5,57.5C 215.016,58.493 206.349,58.8264 197.5,58.5C 197.5,52.5 197.5,46.5 197.5,40.5 Z"/></g>
<g><path style="opacity:1" fill="#b77147" d="M 204.5,152.5 C 202.609,155.172 199.942,156.172 196.5,155.5C 196.387,158.049 197.054,160.382 198.5,162.5C 192.825,163.243 187.825,163.243 183.5,162.5C 183.5,160.167 183.5,157.833 183.5,155.5C 184.309,157.292 184.809,159.292 185,161.5C 185.39,158.896 186.224,156.562 187.5,154.5C 188.038,156.117 188.371,157.784 188.5,159.5C 189.5,159.5 190.5,159.5 191.5,159.5C 191.586,160.496 191.252,161.329 190.5,162C 192.5,162.667 194.5,162.667 196.5,162C 195.565,159.619 195.232,157.119 195.5,154.5C 198.692,154.595 201.692,153.929 204.5,152.5 Z"/></g>
<g><path style="opacity:1" fill="#361b13" d="M 251.5,143.5 C 252.327,148.985 252.827,154.652 253,160.5C 253.333,160.833 253.667,161.167 254,161.5C 254.497,158.854 254.664,156.187 254.5,153.5C 256.833,153.5 259.167,153.5 261.5,153.5C 259.735,154.461 257.735,154.795 255.5,154.5C 255.5,155.833 255.5,157.167 255.5,158.5C 255.5,159.5 255.5,160.5 255.5,161.5C 253.833,162.833 252.167,162.833 250.5,161.5C 251.49,155.69 251.823,149.69 251.5,143.5 Z"/></g>
<g><path style="opacity:1" fill="#73310d" d="M 250.5,161.5 C 252.167,162.833 253.833,162.833 255.5,161.5C 256.978,161.238 258.311,161.571 259.5,162.5C 256.167,163.833 252.833,163.833 249.5,162.5C 249.624,161.893 249.957,161.56 250.5,161.5 Z"/></g>
<g><path style="opacity:1" fill="#341410" d="M 217.5,213.5 C 217.795,211.577 218.628,209.91 220,208.5C 220.667,211.833 220.667,215.167 220,218.5C 219.95,216.256 219.117,214.589 217.5,213.5 Z"/></g>
<g><path style="opacity:1" fill="#60301a" d="M 235.5,211.5 C 235.662,213.527 235.495,215.527 235,217.5C 234.617,218.056 234.117,218.389 233.5,218.5C 234.218,216.863 234.384,215.197 234,213.5C 233.333,212.167 232.667,212.167 232,213.5C 231.761,215.761 231.594,217.761 231.5,219.5C 228.814,216.069 228.981,212.736 232,209.5C 232.71,210.973 233.876,211.64 235.5,211.5 Z"/></g>
<g><path style="opacity:1" fill="#49210f" d="M 200.5,215.5 C 200.649,214.448 200.483,213.448 200,212.5C 199.282,213.451 198.449,213.617 197.5,213C 198.563,211.812 199.897,211.312 201.5,211.5C 201.768,213.099 201.434,214.432 200.5,215.5 Z"/></g>
<g><path style="opacity:1" fill="#3f0f09" d="M 191.5,213.5 C 189.883,214.589 189.05,216.256 189,218.5C 188.176,215.118 188.343,211.784 189.5,208.5C 190.562,210.022 191.229,211.688 191.5,213.5 Z"/></g>
<g><path style="opacity:1" fill="#794a30" d="M 217.5,213.5 C 216.955,215.593 216.122,217.593 215,219.5C 214.252,217.668 213.252,216.001 212,214.5C 210.066,216.419 210.233,217.919 212.5,219C 211.552,219.483 210.552,219.649 209.5,219.5C 209.176,215.445 209.509,211.445 210.5,207.5C 212.849,209.204 213.849,211.537 213.5,214.5C 214.959,214.567 216.292,214.234 217.5,213.5 Z"/></g>
<g><path style="opacity:1" fill="#321204" d="M 191.5,213.5 C 193.085,214.002 193.585,215.002 193,216.5C 191.961,215.756 191.461,214.756 191.5,213.5 Z"/></g>
<g><path style="opacity:1" fill="#c58159" d="M 235.5,211.5 C 237.167,211.5 238.833,211.5 240.5,211.5C 241.895,212.648 241.728,213.648 240,214.5C 239.667,213.833 239.333,213.167 239,212.5C 236.892,215.138 237.059,217.472 239.5,219.5C 240.522,219.145 241.189,218.478 241.5,217.5C 240.448,217.649 239.448,217.483 238.5,217C 241.215,216.125 242.548,214.292 242.5,211.5C 246.833,211.5 251.167,211.5 255.5,211.5C 255.357,213.262 255.691,214.929 256.5,216.5C 256.145,217.522 255.478,218.189 254.5,218.5C 252.836,217.051 252.002,215.051 252,212.5C 251.503,214.81 251.337,217.143 251.5,219.5C 247.507,219.832 243.507,220.165 239.5,220.5C 237.048,220.461 235.048,219.794 233.5,218.5C 234.117,218.389 234.617,218.056 235,217.5C 235.495,215.527 235.662,213.527 235.5,211.5 Z"/></g>
<g><path style="opacity:1" fill="#6a3014" d="M 241.5,217.5 C 242.189,216.226 243.023,216.226 244,217.5C 245.009,215.975 245.509,214.308 245.5,212.5C 246.5,212.5 247.5,212.5 248.5,212.5C 248.261,214.467 248.594,216.301 249.5,218C 247.892,218.658 246.725,218.158 246,216.5C 245.036,220.005 243.536,220.338 241.5,217.5 Z"/></g>
<g><path style="opacity:1" fill="#551e0d" d="M 200.5,215.5 C 203.6,219.101 202.933,221.768 198.5,223.5C 197.692,223.192 197.025,222.692 196.5,222C 198.101,221.727 199.601,221.227 201,220.5C 201.448,218.591 200.615,217.424 198.5,217C 199.044,216.283 199.711,215.783 200.5,215.5 Z"/></g>
<g><path style="opacity:1" fill="#532e23" d="M 225.5,211.5 C 226.675,211.281 227.675,211.614 228.5,212.5C 227.968,214.741 226.635,216.241 224.5,217C 228.18,218.225 227.847,219.058 223.5,219.5C 223.283,216.579 223.949,213.913 225.5,211.5 Z"/></g>
<g><path style="opacity:1" fill="#4d2516" d="M 240.5,211.5 C 241.167,211.5 241.833,211.5 242.5,211.5C 242.548,214.292 241.215,216.125 238.5,217C 239.448,217.483 240.448,217.649 241.5,217.5C 241.189,218.478 240.522,219.145 239.5,219.5C 237.059,217.472 236.892,215.138 239,212.5C 239.333,213.167 239.667,213.833 240,214.5C 241.728,213.648 241.895,212.648 240.5,211.5 Z"/></g>
<g><path style="opacity:1" fill="#461201" d="M 254.5,218.5 C 253.791,219.404 252.791,219.737 251.5,219.5C 251.337,217.143 251.503,214.81 252,212.5C 252.002,215.051 252.836,217.051 254.5,218.5 Z"/></g>
<g><path style="opacity:1" fill="#f4e3d5" d="M 331.5,230.5 C 331.256,233.263 329.923,235.429 327.5,237C 328.634,238.016 328.301,238.683 326.5,239C 326.833,239.333 327.167,239.667 327.5,240C 325.667,241.833 323.833,243.667 322,245.5C 321.282,244.549 320.449,244.383 319.5,245C 318.403,247.765 316.403,249.431 313.5,250C 312.056,251.763 311.056,253.763 310.5,256C 308.152,256.346 306.319,257.513 305,259.5C 304.617,258.944 304.117,258.611 303.5,258.5C 303.5,257.5 303.5,256.5 303.5,255.5C 304.675,255.719 305.675,255.386 306.5,254.5C 314.284,245.712 322.617,237.712 331.5,230.5 Z"/></g>
<g><path style="opacity:1" fill="#faf4e3" d="M 111.5,230.5 C 121.906,242.908 133.573,253.908 146.5,263.5C 140.948,262.891 135.948,260.891 131.5,257.5C 130.548,255.955 130.215,254.288 130.5,252.5C 128.833,252.5 127.167,252.5 125.5,252.5C 125.762,251.022 125.429,249.689 124.5,248.5C 123.186,247.687 122.019,246.687 121,245.5C 117.815,240.453 114.649,235.453 111.5,230.5 Z"/></g>
</svg>
